<?xml version="1.0" standalone="no"?>
<!DOCTYPE svg PUBLIC "-//W3C//DTD SVG 1.1//EN" "http://www.w3.org/Graphics/SVG/1.1/DTD/svg11.dtd" >
<svg>
<metadata>
Created by FontForge 20090622 at Fri Dec 18 15:26:59 2015
 By deploy user
Copyright (c) Mark Simonson, 2005. All rights reserved.
</metadata>
<defs>
<font id="ProximaNovaAExCn-BoldIt" horiz-adv-x="420" >
  <font-face 
    font-family="Proxima Nova Alt ExCn Rg"
    font-weight="700"
    font-style="italic"
    font-stretch="normal"
    units-per-em="1000"
    panose-1="2 0 5 6 3 0 0 2 0 4"
    ascent="790"
    descent="-210"
    x-height="483"
    cap-height="667"
    bbox="-152 -199 830 872"
    underline-thickness="20"
    underline-position="-113"
    unicode-range="U+000D-U+FB02"
  />
<missing-glyph horiz-adv-x="455" 
d="M423 -90h-351v842h351v-842zM391 -60v782h-288v-782h288z" />
    <glyph glyph-name="fi" unicode="fi" horiz-adv-x="454" 
d="M120 0h-113l85 385h-44l22 98h44l11 50q30 144 144 144q40 0 72 -15l-37 -88q-7 5 -21 5q-35 0 -45 -46l-11 -50h61l-22 -98h-61zM423 540q-27 0 -44.5 17t-17.5 42q0 35 24.5 56.5t53.5 21.5q27 0 44.5 -17.5t17.5 -41.5q0 -35 -24.5 -56.5t-53.5 -21.5zM353 0h-112
l107 483h112z" />
    <glyph glyph-name="fl" unicode="fl" horiz-adv-x="482" 
d="M120 0h-113l85 385h-44l22 98h44l11 50q30 144 144 144q40 0 72 -15l-37 -88q-7 5 -21 5q-35 0 -45 -46l-11 -50h61l-22 -98h-61zM372 -12q-112 0 -112 85q0 22 6 44l122 550h112l-117 -530q-3 -18 -3 -23q1 -26 26 -26q14 0 25 11l2 -94q-22 -17 -61 -17z" />
    <glyph glyph-name=".notdef" horiz-adv-x="455" 
d="M423 -90h-351v842h351v-842zM391 -60v782h-288v-782h288z" />
    <glyph glyph-name=".null" horiz-adv-x="0" 
 />
    <glyph glyph-name="nonmarkingreturn" horiz-adv-x="333" 
 />
    <glyph glyph-name="NUL" horiz-adv-x="0" 
 />
    <glyph glyph-name="NUL" horiz-adv-x="0" 
 />
    <glyph glyph-name="CR" unicode="&#xd;" horiz-adv-x="0" 
 />
    <glyph glyph-name="space" unicode=" " horiz-adv-x="161" 
 />
    <glyph glyph-name="exclam" unicode="!" horiz-adv-x="249" 
d="M165 209h-98l81 458h138zM76 -11q-28 0 -47.5 19.5t-19.5 47.5q0 33 24 57t56 24q28 0 47.5 -20t19.5 -48q0 -33 -24 -56.5t-56 -23.5z" />
    <glyph glyph-name="quotedbl" unicode="&#x22;" horiz-adv-x="389" 
d="M164 386h-50q12 204 12 218q1 31 21.5 52t50.5 21q23 0 39 -16.5t16 -40.5q0 -14 -7 -28zM336 386h-50q12 204 12 218q1 32 21.5 52.5t51.5 20.5q22 0 38.5 -16.5t16.5 -40.5q0 -7 -7 -28z" />
    <glyph glyph-name="numbersign" unicode="#" horiz-adv-x="455" 
d="M211 0h-85l80 173h-63l-78 -173h-85l79 173h-60l33 73h60l79 175h-60l31 72h62l78 174h85l-78 -174h62l78 174h84l-78 -174h59l-31 -72h-61l-80 -175h63l-33 -73h-63zM238 246l79 175h-62l-78 -175h61z" />
    <glyph glyph-name="dollar" unicode="$" horiz-adv-x="389" 
d="M83 -100l20 93q-84 16 -125 71l72 93q16 -25 44 -41t57 -16q32 0 55 25t23 66q0 27 -23.5 58t-52 56.5t-52 67.5t-23.5 90q0 81 50.5 141.5t126.5 71.5l21 92h85l-22 -97q63 -17 98 -57l-67 -93q-32 45 -87 45q-33 0 -52.5 -23.5t-19.5 -56.5q0 -26 23.5 -57t51.5 -56.5
t51.5 -68t23.5 -90.5q0 -84 -48 -147t-125 -76l-20 -91h-85z" />
    <glyph glyph-name="percent" unicode="%" horiz-adv-x="587" 
d="M125 0h-50l426 667h51zM396 -12q-54 0 -84 35.5t-30 89.5q0 85 47 146t108 61q53 0 83 -35.5t30 -89.5q0 -85 -46.5 -146t-107.5 -61zM401 59q26 0 49.5 39t23.5 90q0 61 -42 61q-26 0 -49.5 -39t-23.5 -90q0 -61 42 -61zM188 345q-53 0 -83 35.5t-30 89.5q0 85 47 146
t108 61q53 0 83 -35.5t30 -89.5q0 -85 -47 -146t-108 -61zM193 416q27 0 50.5 39t23.5 90q0 61 -42 61q-27 0 -50.5 -39t-23.5 -90q0 -61 42 -61z" />
    <glyph glyph-name="ampersand" unicode="&#x26;" horiz-adv-x="447" 
d="M388 0h-113q-3 6 -13 31q-57 -43 -120 -43q-62 0 -100 38t-38 106q0 60 23.5 109.5t53 77.5t74.5 58q-9 49 -9 93q0 85 48.5 146t112.5 61q53 0 83.5 -31.5t30.5 -91.5q0 -38 -12 -69t-40.5 -59t-46.5 -41.5t-59 -41.5q7 -31 18 -63q9 -32 21 -67q29 54 56 115l81 -48
q-46 -99 -99 -169q20 -51 48 -111zM169 78q29 0 62 33q-20 55 -32 95q-11 34 -21 71q-58 -56 -58 -128q0 -31 13 -51t36 -20zM245 466q0 -20 1 -30q77 55 77 118q0 41 -25 41q-21 0 -37 -40.5t-16 -88.5z" />
    <glyph glyph-name="quotesingle" unicode="'" horiz-adv-x="218" 
d="M164 386h-50q12 204 12 218q1 31 21.5 52t50.5 21q23 0 39 -16.5t16 -40.5q0 -14 -7 -28z" />
    <glyph glyph-name="parenleft" unicode="(" horiz-adv-x="258" 
d="M147 -170l-89 -29q-35 108 -35 235q0 349 230 649l74 -44q-86 -145 -137.5 -321.5t-51.5 -340.5q0 -82 9 -149z" />
    <glyph glyph-name="parenright" unicode=")" horiz-adv-x="258" 
d="M110 656l89 29q36 -111 36 -235q0 -348 -231 -649l-74 44q86 145 137.5 321.5t51.5 340.5q0 81 -9 149z" />
    <glyph glyph-name="asterisk" unicode="*" horiz-adv-x="321" 
d="M218 373h-60l31 114l-107 -49l-17 53l109 39l-87 60l40 46l80 -68l19 109h59l-31 -114l107 49l17 -53l-108 -40l86 -60l-41 -46l-79 69z" />
    <glyph glyph-name="plus" unicode="+" horiz-adv-x="383" 
d="M366 302h-123l-33 -146h-78l33 146h-123l15 71h124l30 139h79l-31 -139h123z" />
    <glyph glyph-name="comma" unicode="," horiz-adv-x="251" 
d="M161 62q0 -54 -39.5 -107.5t-98.5 -82.5l-41 43q29 14 56 37t38 47h-10q-24 0 -40 16t-16 43q0 32 25 55.5t56 23.5q29 0 49.5 -20t20.5 -55z" />
    <glyph glyph-name="hyphen" unicode="-" horiz-adv-x="241" 
d="M200 194h-181l21 96h181z" />
    <glyph glyph-name="period" unicode="." horiz-adv-x="248" 
d="M77 -11q-28 0 -47.5 19.5t-19.5 47.5q0 33 24 57t57 24q28 0 47.5 -20t19.5 -48q0 -33 -24 -56.5t-57 -23.5z" />
    <glyph glyph-name="slash" unicode="/" horiz-adv-x="227" 
d="M23 -20h-83l303 707h84z" />
    <glyph glyph-name="zero" unicode="0" horiz-adv-x="454" 
d="M190 -12q-72 0 -115.5 54.5t-43.5 156.5q0 110 34 219t98.5 184t139.5 75q71 0 114.5 -54.5t43.5 -156.5q0 -109 -34 -218.5t-98 -184.5t-139 -75zM201 100q38 0 71 77.5t49.5 165.5t16.5 145q0 77 -47 77q-38 0 -71 -77.5t-49.5 -165.5t-16.5 -144q0 -78 47 -78z" />
    <glyph glyph-name="one" unicode="1" horiz-adv-x="348" 
d="M242 0h-126l112 505l-114 -97l-56 76l222 183h109z" />
    <glyph glyph-name="two" unicode="2" horiz-adv-x="441" 
d="M354 0h-367l29 127l85.5 84.5l74 73l56.5 57t46.5 50.5t29.5 39.5t20 37.5t5 32q0 30 -17 47t-47 17q-60 0 -111 -62l-63 81q80 93 186 93q82 0 133 -42.5t51 -117.5q0 -81 -56.5 -155.5t-230.5 -250.5h200z" />
    <glyph glyph-name="three" unicode="3" horiz-adv-x="440" 
d="M188 -12q-70 0 -126 35t-75 99l102 64q11 -41 37.5 -63.5t61.5 -22.5q42 0 65.5 37.5t23.5 83.5q0 31 -19.5 47t-49.5 16q-26 0 -37 -1l26 113q7 -1 51 -1q42 0 64.5 33t22.5 77q0 60 -72 60q-58 0 -96 -56l-67 75q77 93 184 93q81 0 130.5 -38.5t49.5 -108.5t-44 -124.5
t-104 -66.5q44 -15 64 -50t20 -78q0 -91 -61.5 -157t-150.5 -66z" />
    <glyph glyph-name="four" unicode="4" horiz-adv-x="430" 
d="M311 0h-126l32 146h-224l27 122l285 399h153l-91 -410h50l-24 -111h-50zM241 257l58 261l-177 -261h119z" />
    <glyph glyph-name="five" unicode="5" horiz-adv-x="445" 
d="M188 -12q-148 0 -193 133l99 63q10 -40 35 -62t58 -22q40 0 70 48t30 107q0 68 -60 68q-44 0 -83 -47l-86 33l79 358h341l-25 -111h-214l-39 -176q37 45 97 45q56 0 89.5 -40.5t33.5 -112.5q0 -114 -65.5 -199t-166.5 -85z" />
    <glyph glyph-name="six" unicode="6" horiz-adv-x="442" 
d="M198 -12q-83 0 -126.5 55.5t-43.5 152.5q0 49 10.5 109.5t34 126.5t56.5 120.5t84 89.5t111 35q51 0 91 -24.5t60 -66.5l-84 -82q-15 61 -73 61q-46 0 -81 -55.5t-57 -136.5q-2 -6 -6 -26q22 36 55 58t67 22q53 0 87.5 -39.5t34.5 -107.5q0 -69 -25 -134.5t-77 -111.5
t-118 -46zM201 100q26 0 47 28.5t30.5 63.5t9.5 65t-13 49t-39 19q-42 0 -80 -73q-7 -33 -7 -71q0 -81 52 -81z" />
    <glyph glyph-name="seven" unicode="7" horiz-adv-x="390" 
d="M154 0h-138l283 556h-213l24 111h356l-20 -87z" />
    <glyph glyph-name="eight" unicode="8" horiz-adv-x="441" 
d="M193 -12q-189 0 -189 150q0 67 40.5 127t117.5 88q-32 19 -52.5 54t-20.5 77q0 81 60 137t141 56q74 0 126 -35.5t52 -111.5q0 -71 -42.5 -124t-104.5 -70q79 -49 79 -144q0 -88 -58 -146t-149 -58zM251 384q88 33 88 124q0 27 -14 42t-39 15q-32 0 -53.5 -30.5
t-21.5 -73.5q0 -25 12.5 -45.5t27.5 -31.5zM192 100q33 0 58 34t25 82q0 32 -14 54.5t-29 29.5q-38 -12 -67.5 -48.5t-29.5 -88.5q0 -31 15.5 -47t41.5 -16z" />
    <glyph glyph-name="nine" unicode="9" horiz-adv-x="442" 
d="M283 678q83 0 126.5 -55.5t43.5 -152.5q0 -63 -17.5 -141.5t-51.5 -156.5t-94 -130.5t-134 -52.5q-51 0 -91 24.5t-59 66.5l84 82q15 -61 73 -61q45 0 80.5 56t56.5 136q4 14 7 26q-22 -36 -55 -58t-68 -22q-53 0 -87.5 39.5t-34.5 107.5q0 69 25.5 134.5t77.5 111.5
t118 46zM280 566q-39 0 -63 -53.5t-24 -103.5q0 -30 12.5 -49t38.5 -19q42 0 80 73q7 33 7 71q0 81 -51 81z" />
    <glyph glyph-name="colon" unicode=":" horiz-adv-x="247" 
d="M77 -11q-28 0 -47.5 19.5t-19.5 47.5q0 33 24 57t57 24q28 0 47.5 -20t19.5 -48q0 -33 -24 -56.5t-57 -23.5zM155 342q-28 0 -47.5 20t-19.5 48q0 32 24 56t57 24q28 0 47.5 -20t19.5 -48q0 -33 -24 -56.5t-57 -23.5z" />
    <glyph glyph-name="semicolon" unicode=";" horiz-adv-x="249" 
d="M161 62q0 -54 -39.5 -107.5t-98.5 -82.5l-41 43q29 14 56 37t38 47h-10q-24 0 -40 16t-16 43q0 32 25 55.5t56 23.5q29 0 49.5 -20t20.5 -55zM155 342q-28 0 -47.5 20t-19.5 48q0 32 24 56t57 24q28 0 47.5 -20t19.5 -48q0 -33 -24 -56.5t-57 -23.5z" />
    <glyph glyph-name="less" unicode="&#x3c;" horiz-adv-x="383" 
d="M334 156l-295 138l19 81l355 139l-19 -89l-262 -95l220 -93z" />
    <glyph glyph-name="equal" unicode="=" horiz-adv-x="383" 
d="M386 393h-325l16 72h325zM345 203h-325l16 72h324z" />
    <glyph glyph-name="greater" unicode="&#x3e;" horiz-adv-x="383" 
d="M364 294l-355 -138l20 88l262 94l-220 95l17 81l294 -139z" />
    <glyph glyph-name="question" unicode="?" horiz-adv-x="325" 
d="M211 233l-103 -34q-9 25 -9 61q0 39 15 72t36.5 56t43 43.5t36.5 43.5t15 47q0 21 -12.5 35t-34.5 14q-31 0 -56 -22l-35 82q59 46 130 46q60 0 99.5 -35t39.5 -87q0 -40 -17.5 -75.5t-43 -61l-51 -49t-43 -49t-17.5 -50.5q0 -23 7 -37zM118 -11q-28 0 -47.5 19.5
t-19.5 47.5q0 33 24 57t57 24q28 0 47.5 -20t19.5 -48q0 -33 -24 -56.5t-57 -23.5z" />
    <glyph glyph-name="at" unicode="@" horiz-adv-x="635" 
d="M291 -70q-112 0 -174 76.5t-62 208.5q0 108 47 205.5t128 157.5t174 60q96 0 156 -65t60 -176q0 -127 -50 -219.5t-118 -92.5q-34 0 -57 18t-28 49l-1 8q-48 -75 -113 -75q-40 0 -67.5 30t-27.5 98q0 69 23 133.5t67.5 108t99.5 43.5q56 0 73 -65l10 51h101l-54 -254
q-3 -15 -3 -27q0 -41 28 -41q14 0 31 26.5t31 83t14 124.5q0 98 -47.5 151.5t-129.5 53.5t-154 -56.5t-112.5 -145t-40.5 -182.5q0 -112 51 -181t149 -69q74 0 148 55l20 -29q-85 -63 -172 -63zM304 166q37 0 72 62l29 138q-10 52 -42 52q-30 0 -54 -32.5t-35 -74.5t-11 -81
q0 -64 41 -64z" />
    <glyph glyph-name="A" unicode="A" horiz-adv-x="424" 
d="M369 0h-126l7 123h-125l-46 -123h-133l286 667h145zM260 234l17 292l-112 -292h95z" />
    <glyph glyph-name="B" unicode="B" horiz-adv-x="452" 
d="M223 0h-225l147 667h166q75 0 116.5 -40.5t41.5 -103.5q0 -68 -38 -124t-98 -65q38 -11 57 -45t19 -76q0 -83 -48.5 -148t-137.5 -65zM257 395q36 0 57 32.5t21 70.5q0 58 -61 58h-27l-36 -161h46zM197 111q37 0 61.5 33t24.5 79q0 61 -61 61h-35l-39 -173h49z" />
    <glyph glyph-name="C" unicode="C" horiz-adv-x="429" 
d="M203 -12q-84 0 -128.5 55.5t-44.5 156.5q0 49 9.5 109t31.5 126t53.5 119.5t81 88.5t107.5 35q81 0 120 -55t42 -135l-116 -23q-7 101 -54 101q-43 0 -78.5 -73.5t-51.5 -156t-16 -139.5q0 -97 51 -97q43 0 83 82l101 -43q-71 -151 -191 -151z" />
    <glyph glyph-name="D" unicode="D" horiz-adv-x="475" 
d="M165 0h-167l147 667h162q70 0 120 -56.5t50 -160.5q0 -36 -6.5 -79.5t-20 -96t-38 -100t-57.5 -87t-82 -63.5t-108 -24zM247 556l-99 -445h39q41 0 74.5 40.5t51.5 98.5t27 110.5t9 87.5q0 55 -18.5 81.5t-46.5 26.5h-37z" />
    <glyph glyph-name="E" unicode="E" horiz-adv-x="379" 
d="M290 0h-292l147 667h292l-24 -111h-166l-36 -161h159l-25 -111h-158l-39 -173h166z" />
    <glyph glyph-name="F" unicode="F" horiz-adv-x="375" 
d="M124 0h-126l147 667h292l-24 -111h-166l-36 -161h159l-25 -111h-158z" />
    <glyph glyph-name="G" unicode="G" horiz-adv-x="453" 
d="M191 -12q-76 0 -118.5 55.5t-42.5 156.5q0 50 10 109.5t33 125.5t55.5 119.5t84 88.5t112.5 35q70 0 105.5 -49.5t37.5 -125.5l-106 -26q-4 89 -52 89q-44 0 -80.5 -70t-53.5 -153.5t-17 -145.5q0 -50 12 -73.5t40 -23.5q33 0 59.5 44.5t40.5 107.5h-85l25 110h204
q-37 -189 -98 -281.5t-166 -92.5z" />
    <glyph glyph-name="H" unicode="H" horiz-adv-x="484" 
d="M378 0h-126l63 288h-128l-63 -288h-126l147 667h126l-59 -269h128l59 269h126z" />
    <glyph glyph-name="I" unicode="I" horiz-adv-x="230" 
d="M124 0h-126l147 667h126z" />
    <glyph glyph-name="J" unicode="J" horiz-adv-x="348" 
d="M87 -12q-82 0 -124 43l51 100q22 -31 62 -31q63 0 79 73l109 494h126l-110 -500q-21 -94 -67 -136.5t-126 -42.5z" />
    <glyph glyph-name="K" unicode="K" horiz-adv-x="471" 
d="M414 0h-133l-58 258l-62 -88l-37 -170h-126l147 667h126l-64 -291l197 291h145l-231 -314z" />
    <glyph glyph-name="L" unicode="L" horiz-adv-x="365" 
d="M290 0h-292l147 667h126l-123 -556h166z" />
    <glyph glyph-name="M" unicode="M" horiz-adv-x="616" 
d="M510 0h-124l93 422l-204 -422h-42l-16 422l-93 -422h-126l147 667h158l14 -369l180 369h160z" />
    <glyph glyph-name="N" unicode="N" horiz-adv-x="484" 
d="M378 0h-118l-52 384l-84 -384h-126l147 667h126l46 -370l82 370h126z" />
    <glyph glyph-name="O" unicode="O" horiz-adv-x="478" 
d="M203 -12q-86 0 -129.5 58.5t-43.5 153.5q0 49 9.5 108.5t32 125.5t54 120t80.5 89t107 35q86 0 129.5 -60t43.5 -154q0 -63 -16.5 -140t-48.5 -154.5t-89.5 -129.5t-128.5 -52zM210 100q42 0 78 71.5t53 154.5t17 141q0 99 -53 99q-32 0 -61 -42.5t-47 -103.5t-28 -121
t-10 -102q0 -97 51 -97z" />
    <glyph glyph-name="P" unicode="P" horiz-adv-x="441" 
d="M124 0h-126l147 667h166q71 0 115 -48t44 -121q0 -103 -63 -178t-177 -75h-52zM243 356h-3q46 0 72.5 39.5t26.5 90.5q0 34 -15.5 52t-41.5 18h-35l-45 -200h41z" />
    <glyph glyph-name="Q" unicode="Q" horiz-adv-x="478" 
d="M203 -12q-86 0 -129.5 58.5t-43.5 153.5q0 49 9.5 108.5t32 125.5t54 120t80.5 89t107 35q86 0 129.5 -60t43.5 -154q0 -111 -45 -244.5t-128 -194.5l7 -43l-93 -18l-4 25q-3 0 -9.5 -0.5t-10.5 -0.5zM185 219l94 17l10 -63q30 60 49.5 148.5t19.5 145.5q0 99 -53 99
q-32 0 -61 -42.5t-47 -103.5t-28 -121t-10 -102q0 -93 45 -97z" />
    <glyph glyph-name="R" unicode="R" horiz-adv-x="460" 
d="M372 0h-131l-18 245h-45l-54 -245h-126l147 667h166q69 0 114 -48.5t45 -120.5q0 -79 -39 -145t-90 -85zM243 356h-1q44 0 70 39t26 91q0 70 -56 70h-35l-45 -200h41z" />
    <glyph glyph-name="S" unicode="S" horiz-adv-x="396" 
d="M152 -12q-54 0 -101.5 21t-72.5 55l72 93q16 -25 44 -41t57 -16q32 0 55 25t23 66q0 27 -23.5 58t-52 56.5t-52 67.5t-23.5 90q0 89 60 152t146 63q44 0 86 -17t67 -47l-67 -93q-32 45 -87 45q-33 0 -52.5 -23.5t-19.5 -56.5q0 -26 23.5 -57t51.5 -56.5t51.5 -68
t23.5 -90.5q0 -94 -59 -160t-150 -66z" />
    <glyph glyph-name="T" unicode="T" horiz-adv-x="364" 
d="M191 0h-126l123 556h-101l24 111h328l-24 -111h-101z" />
    <glyph glyph-name="U" unicode="U" horiz-adv-x="484" 
d="M209 -12q-75 0 -123.5 45.5t-48.5 121.5q0 20 5 43l103 469h126l-106 -480q-3 -21 -3 -29q0 -28 15.5 -43.5t40.5 -15.5q29 0 47 20t29 68l105 480h126l-105 -474q-22 -103 -77.5 -154t-133.5 -51z" />
    <glyph glyph-name="V" unicode="V" horiz-adv-x="424" 
d="M230 0h-145l8 667h126l-29 -505l194 505h132z" />
    <glyph glyph-name="W" unicode="W" horiz-adv-x="616" 
d="M437 0h-128l40 430l-150 -430h-128l33 667h126l-43 -447l163 447h99l-34 -447l153 447h130z" />
    <glyph glyph-name="X" unicode="X" horiz-adv-x="438" 
d="M386 0h-133l-35 223l-128 -223h-145l226 347l-71 320h132l29 -212l118 212h146l-216 -333z" />
    <glyph glyph-name="Y" unicode="Y" horiz-adv-x="430" 
d="M224 0h-126l61 276l-70 391h128l26 -269l146 269h138l-242 -391z" />
    <glyph glyph-name="Z" unicode="Z" horiz-adv-x="376" 
d="M292 0h-317l23 107l262 449h-162l24 111h310l-22 -102l-265 -454h172z" />
    <glyph glyph-name="bracketleft" unicode="[" horiz-adv-x="205" 
d="M90 -190h-151l192 868h152l-17 -76h-69l-159 -716h69z" />
    <glyph glyph-name="backslash" unicode="\" horiz-adv-x="227" 
d="M88 -20v707h81v-707h-81z" />
    <glyph glyph-name="bracketright" unicode="]" horiz-adv-x="205" 
d="M72 -190h-150l16 76h69l159 716h-69l17 76h151z" />
    <glyph glyph-name="asciicircum" unicode="^" horiz-adv-x="337" 
d="M337 333h-79l-14 243l-121 -243h-85l182 334h83z" />
    <glyph glyph-name="underscore" unicode="_" horiz-adv-x="279" 
d="M202 -116h-284l17 76h284z" />
    <glyph glyph-name="grave" unicode="`" horiz-adv-x="178" 
d="M247 556h-72l-74 144h98z" />
    <glyph glyph-name="a" unicode="a" horiz-adv-x="414" 
d="M325 0h-112l10 47q-38 -59 -104 -59q-48 0 -80 33t-32 90q0 80 44 137.5t110 57.5q32 0 62 -16t43 -45l15 64q4 16 4 33q0 28 -19.5 43.5t-50.5 15.5q-53 0 -100 -39l-25 83q62 50 153 50q70 0 115 -31.5t45 -90.5q0 -23 -6 -48zM174 65q39 0 63 44l16 71q-13 49 -60 49
q-33 0 -52 -33.5t-19 -73.5q0 -57 52 -57z" />
    <glyph glyph-name="b" unicode="b" horiz-adv-x="423" 
d="M213 -12q-74 0 -95 74l-14 -62h-112l147 667h112l-53 -242q44 70 103 70q106 0 106 -154q0 -50 -12 -108.5t-35 -114.5t-61.5 -93t-85.5 -37zM187 88q47 0 75.5 84.5t28.5 153.5t-48 69q-17 0 -34.5 -16t-29.5 -40l-43 -193q4 -26 18 -42t33 -16z" />
    <glyph glyph-name="c" unicode="c" horiz-adv-x="344" 
d="M179 -12q-76 0 -119 46.5t-43 134.5q0 75 26 148.5t80.5 125.5t123.5 52q81 0 122 -50l-54 -84q-20 34 -59 34q-53 0 -88 -71.5t-35 -144.5q0 -91 72 -91q31 0 59 26l19 -88q-42 -38 -104 -38z" />
    <glyph glyph-name="d" unicode="d" horiz-adv-x="423" 
d="M209 495q74 0 95 -74l54 246h113l-148 -667h-113l14 58q-46 -70 -103 -70q-106 0 -106 154q0 50 12 108.5t35 114.5t61.5 93t85.5 37zM234 395q-25 0 -45.5 -27t-32.5 -66.5t-18.5 -78t-6.5 -66.5q0 -69 48 -69q17 0 34.5 16t29.5 40l43 193q-4 26 -18.5 42t-33.5 16z
" />
    <glyph glyph-name="e" unicode="e" horiz-adv-x="404" 
d="M182 -12q-78 0 -121.5 47.5t-43.5 134.5q0 47 14 101t40.5 105t71.5 85t99 34q74 0 111 -43t37 -122q0 -51 -20 -126h-245q-4 -19 -4 -41q0 -34 19.5 -58.5t62.5 -24.5t83 42l40 -70q-61 -64 -144 -64zM278 284h4q5 27 5 49q0 31 -14.5 50.5t-40.5 19.5
q-36 0 -59.5 -36.5t-31.5 -82.5h137z" />
    <glyph glyph-name="f" unicode="f" horiz-adv-x="249" 
d="M120 0h-113l85 385h-44l22 98h44l11 50q30 144 144 144q40 0 72 -15l-37 -88q-7 5 -21 5q-35 0 -45 -46l-11 -50h61l-22 -98h-61z" />
    <glyph glyph-name="g" unicode="g" horiz-adv-x="423" 
d="M120 -196q-106 0 -156 61l58 85q35 -48 95 -48q36 0 58.5 25.5t36.5 81.5l16 66q-42 -70 -103 -70q-52 0 -80.5 37t-28.5 109q0 49 11 105t33 111.5t61 91.5t88 36q30 0 59 -19.5t36 -54.5l14 62h112l-106 -474q-25 -112 -76.5 -158.5t-127.5 -46.5zM181 105
q18 0 35.5 16.5t29.5 40.5l39 175q-4 24 -19 41t-33 17q-32 0 -56 -42.5t-34 -91t-10 -87.5q0 -69 48 -69z" />
    <glyph glyph-name="h" unicode="h" 
d="M320 0h-113l76 343q3 9 3 20q0 32 -31 32q-39 0 -78 -64l-73 -331h-112l147 667h112l-53 -245q54 73 121 73q42 0 66 -22.5t24 -58.5q0 -9 -4 -29z" />
    <glyph glyph-name="i" unicode="i" horiz-adv-x="204" 
d="M174 540q-27 0 -44.5 17t-17.5 42q0 35 24.5 56.5t53.5 21.5q27 0 44.5 -17.5t17.5 -41.5q0 -35 -24.5 -56.5t-53.5 -21.5zM104 0h-112l107 483h112z" />
    <glyph glyph-name="j" unicode="j" horiz-adv-x="204" 
d="M-55 -196q-52 0 -74 28l45 83q4 -13 23 -13q31 0 43 56l117 525h112l-116 -525q-18 -81 -51.5 -117.5t-98.5 -36.5zM174 540q-27 0 -44.5 17t-17.5 42q0 35 24.5 56.5t53.5 21.5q27 0 44.5 -17.5t17.5 -41.5q0 -35 -24.5 -56.5t-53.5 -21.5z" />
    <glyph glyph-name="k" unicode="k" horiz-adv-x="403" 
d="M344 0h-121l-31 195l-63 -82l-25 -113h-112l147 667h112l-88 -401l157 217h126l-162 -215z" />
    <glyph glyph-name="l" unicode="l" horiz-adv-x="233" 
d="M123 -12q-112 0 -112 85q0 22 6 44l122 550h112l-117 -530q-3 -18 -3 -23q1 -26 26 -26q14 0 25 11l2 -94q-22 -17 -61 -17z" />
    <glyph glyph-name="m" unicode="m" horiz-adv-x="636" 
d="M536 0h-113l76 343q0 1 1.5 9t1.5 11q0 32 -31 32q-40 0 -78 -64l-73 -331h-113l76 343q3 15 3 21q0 31 -31 31q-38 0 -78 -64l-73 -331h-112l107 483h112l-13 -61q22 31 55 52t66 21q39 0 64 -21t25 -51v-8q22 35 57 57.5t70 22.5q41 0 65.5 -21.5t24.5 -58.5
q0 -2 -4 -30z" />
    <glyph glyph-name="n" unicode="n" 
d="M320 0h-113l76 343q3 15 3 20q0 32 -31 32q-39 0 -78 -64l-73 -331h-112l107 483h112l-13 -61q54 73 121 73q42 0 66 -22t24 -59q0 -5 -4 -29z" />
    <glyph glyph-name="o" unicode="o" horiz-adv-x="417" 
d="M173 -12q-76 0 -116 46t-40 131q0 73 25 147t78 128.5t122 54.5q76 0 116 -46t40 -131q0 -73 -25 -147t-78 -128.5t-122 -54.5zM179 88q32 0 57.5 45t36.5 97t11 90q0 75 -48 75q-32 0 -57.5 -45.5t-36.5 -97.5t-11 -90q0 -74 48 -74z" />
    <glyph glyph-name="p" unicode="p" horiz-adv-x="423" 
d="M213 -12q-74 0 -95 74l-55 -246h-112l148 667h112l-13 -58q44 70 103 70q106 0 106 -154q0 -50 -12 -108.5t-35 -114.5t-61.5 -93t-85.5 -37zM187 88q47 0 75.5 84.5t28.5 153.5t-48 69q-17 0 -34.5 -16t-29.5 -40l-43 -193q4 -26 18 -42t33 -16z" />
    <glyph glyph-name="q" unicode="q" horiz-adv-x="423" 
d="M209 495q74 0 95 -74l13 62h113l-148 -667h-113l55 242q-46 -70 -103 -70q-106 0 -106 154q0 50 12 108.5t35 114.5t61.5 93t85.5 37zM234 395q-25 0 -45.5 -27t-32.5 -66.5t-18.5 -78t-6.5 -66.5q0 -69 48 -69q17 0 34.5 16t29.5 40l43 193q-4 26 -18.5 42t-33.5 16z
" />
    <glyph glyph-name="r" unicode="r" horiz-adv-x="281" 
d="M104 0h-112l107 483h112l-13 -62q44 74 125 74l-26 -113q-7 5 -26 5q-54 0 -95 -64z" />
    <glyph glyph-name="s" unicode="s" horiz-adv-x="345" 
d="M133 -12q-52 0 -95 20.5t-62 50.5l62 73q34 -55 96 -55q26 0 44 17t18 41q0 20 -23 41t-50 37t-50 48.5t-23 73.5q0 66 43.5 113t120.5 47q42 0 81 -17.5t64 -48.5l-59 -71q-11 18 -36 33t-51 15q-25 0 -40 -14t-15 -37q0 -15 15.5 -30.5t37.5 -30t44 -32.5t37.5 -45.5
t15.5 -61.5q0 -68 -48.5 -117.5t-126.5 -49.5z" />
    <glyph glyph-name="t" unicode="t" horiz-adv-x="257" 
d="M139 -12q-112 0 -112 86q0 20 5 43l60 268h-45l22 98h45l29 132h113l-29 -132h61l-22 -98h-61l-55 -248q-3 -10 -3 -23q0 -26 26 -26q14 0 25 11l2 -94q-25 -17 -61 -17z" />
    <glyph glyph-name="u" unicode="u" 
d="M99 483h112l-75 -343q-3 -10 -3 -20q0 -32 30 -32q41 0 77 62l74 333h113l-107 -483h-113l14 61q-54 -73 -122 -73q-41 0 -65 22t-24 59q0 17 4 29z" />
    <glyph glyph-name="v" unicode="v" horiz-adv-x="381" 
d="M196 0h-121l-20 483h116l-8 -342l146 342h123z" />
    <glyph glyph-name="w" unicode="w" horiz-adv-x="608" 
d="M438 0h-119l3 329l-142 -329h-118l-4 483h114l-12 -330l136 330h108l-5 -330l136 330h121z" />
    <glyph glyph-name="x" unicode="x" horiz-adv-x="372" 
d="M314 0h-117l-26 160l-99 -160h-123l166 243l-54 240h116l23 -156l93 156h123l-161 -240z" />
    <glyph glyph-name="y" unicode="y" 
d="M117 -196q-51 0 -93.5 17t-62.5 44l58 85q34 -48 95 -48q71 0 95 107l15 68q-23 -31 -55.5 -51.5t-65.5 -20.5q-42 0 -66 22t-24 60q0 11 4 27l82 369h112l-73 -327q-2 -14 -2 -20q0 -32 31 -32q42 0 77 64l70 315h113l-105 -474q-24 -108 -75.5 -156.5t-129.5 -48.5z
" />
    <glyph glyph-name="z" unicode="z" horiz-adv-x="335" 
d="M255 0h-282l18 85l207 300h-140l22 98h278l-19 -82l-208 -303h145z" />
    <glyph glyph-name="braceleft" unicode="{" horiz-adv-x="220" 
d="M106 -190h-21q-40 0 -71 26.5t-31 66.5q0 6 3 27l47 214q3 15 3 19q0 22 -10.5 35t-29.5 13l15 66q52 0 67 67l48 216q26 118 144 118h29l-17 -76h-29q-36 0 -45 -42l-51 -236q-15 -70 -65 -89q29 -15 29 -55q0 -18 -4 -34l-47 -211q-3 -15 -3 -18q0 -14 8 -22.5t19 -8.5
h29z" />
    <glyph glyph-name="bar" unicode="|" horiz-adv-x="181" 
d="M148 -20h-76v707h76v-707z" />
    <glyph glyph-name="braceright" unicode="}" horiz-adv-x="220" 
d="M113 678h20q40 0 71.5 -26.5t31.5 -67.5q0 -12 -4 -26l-47 -214q-2 -10 -2 -19q0 -48 39 -48l-15 -66q-51 0 -66 -67l-48 -216q-27 -118 -145 -118h-28l17 76h28q36 0 45 42l52 236q15 70 65 89q-29 15 -29 55q0 18 4 34l47 211q2 10 2 18q0 14 -8 22.5t-19 8.5h-28z" />
    <glyph glyph-name="asciitilde" unicode="~" horiz-adv-x="416" 
d="M405 667l76 -6q-45 -246 -164 -246q-33 0 -50 18.5t-20.5 45t-3.5 53t-3.5 45t-15.5 18.5q-43 0 -82 -181l-77 7q48 245 165 245q33 0 50 -18.5t20.5 -45t3.5 -53.5t3.5 -45.5t15.5 -18.5q43 0 82 182z" />
    <glyph glyph-name="uni00A0" unicode="&#xa0;" horiz-adv-x="161" 
 />
    <glyph glyph-name="exclamdown" unicode="&#xa1;" horiz-adv-x="249" 
d="M82 274h99l-82 -458h-137zM172 494q28 0 47.5 -19.5t19.5 -47.5q0 -33 -24 -57t-57 -24q-28 0 -47.5 20t-19.5 48q0 33 24 56.5t57 23.5z" />
    <glyph glyph-name="cent" unicode="&#xa2;" horiz-adv-x="344" 
d="M78 -100l23 104q-84 40 -84 165q0 107 52.5 204.5t139.5 117.5l17 74h83l-17 -76q50 -12 77 -44l-54 -84q-20 34 -59 34q-53 0 -88 -71.5t-35 -144.5q0 -91 72 -91q31 0 59 26l19 -88q-41 -36 -102 -38l-20 -88h-83z" />
    <glyph glyph-name="sterling" unicode="&#xa3;" horiz-adv-x="424" 
d="M37 276l16 73h51q-13 46 -13 88q0 102 67 171t150 69q67 0 112 -37t46 -105l-108 -32q-3 71 -49 71q-33 0 -58 -45.5t-25 -108.5q0 -21 12 -71h70l-15 -73h-53q-7 -51 -31 -93.5t-58 -65.5q24 9 36 9q22 0 52.5 -13t48.5 -13q38 0 67 29l11 -101q-38 -40 -102 -40
q-41 0 -85.5 20.5t-68.5 20.5q-37 0 -85 -36l-18 86q49 28 81.5 79t32.5 104q0 9 -1 14h-83z" />
    <glyph glyph-name="yen" unicode="&#xa5;" horiz-adv-x="430" 
d="M225 0h-126l26 117h-129l16 71h128l20 88h-129l16 71h100l-57 320h128l26 -269l146 269h138l-198 -320h96l-16 -71h-124l-20 -88h125l-16 -71h-124z" />
    <glyph glyph-name="brokenbar" unicode="&#xa6;" horiz-adv-x="181" 
d="M148 -20h-76v316h76v-316zM148 371h-76v316h76v-316z" />
    <glyph glyph-name="section" unicode="&#xa7;" horiz-adv-x="347" 
d="M345 336q0 -105 -102 -150q47 -38 47 -97q0 -71 -49 -120.5t-122 -49.5q-121 0 -164 67l63 71q30 -54 94 -54q29 0 48 21t19 50q0 20 -14.5 37t-36 31t-42.5 30.5t-35.5 43t-14.5 61.5q0 49 30 87.5t80 51.5q-55 40 -55 105q0 67 46.5 111.5t112.5 44.5q105 0 155 -65
l-60 -62q-32 46 -87 46q-26 0 -42.5 -18t-16.5 -43q0 -23 23 -45.5t50 -38.5t50 -46.5t23 -68.5zM240 308q0 39 -32 67q-67 -13 -67 -77q0 -44 44 -71q55 24 55 81z" />
    <glyph glyph-name="dieresis" unicode="&#xa8;" horiz-adv-x="277" 
d="M363 616q0 -27 -21 -48t-49 -21q-23 0 -38.5 16t-15.5 39q0 27 21 48t48 21q23 0 39 -16t16 -39zM200 616q0 -27 -21 -48t-48 -21q-23 0 -39 16t-16 39q0 27 21 48t48 21q24 0 39.5 -16t15.5 -39z" />
    <glyph glyph-name="copyright" unicode="&#xa9;" horiz-adv-x="778" 
d="M754 334q0 -142 -101.5 -243.5t-244.5 -101.5q-142 0 -243 101t-101 244t101 244t243 101q143 0 244.5 -101.5t101.5 -243.5zM719 334q0 127 -91.5 218.5t-219.5 91.5q-127 0 -218 -91t-91 -219t91 -219t218 -91q128 0 219.5 91.5t91.5 218.5zM506 208l23 -32
q-65 -54 -137 -54q-87 0 -139.5 52.5t-52.5 132.5q0 100 71 169.5t163 69.5q110 0 159 -80l-36 -26q-36 68 -125 68q-71 0 -129.5 -58t-58.5 -142q0 -62 40.5 -105t107.5 -43q66 0 114 48z" />
    <glyph glyph-name="ordfeminine" unicode="&#xaa;" horiz-adv-x="313" 
d="M224 583q-30 0 -50.5 -49.5t-20.5 -98.5q0 -51 34 -51q24 0 45 39l28 125q-3 15 -13.5 25t-22.5 10zM280 640h83l-69 -314h-83l8 39q-30 -47 -73 -47q-35 0 -56.5 27t-21.5 83q0 77 38 148.5t96 71.5q51 0 70 -46z" />
    <glyph glyph-name="guillemotleft" unicode="&#xab;" horiz-adv-x="385" 
d="M165 63h-86l-50 180l130 177h90l-133 -181zM312 63h-86l-50 180l130 177h90l-133 -181z" />
    <glyph glyph-name="logicalnot" unicode="&#xac;" horiz-adv-x="383" 
d="M402 465l-57 -262h-74l41 190h-251l16 72h325z" />
    <glyph glyph-name="registered" unicode="&#xae;" horiz-adv-x="494" 
d="M508 465q0 -88 -62.5 -150t-150.5 -62t-149.5 62t-61.5 150t62 150t150 62t150 -61.5t62 -150.5zM477 465q0 75 -53.5 128t-128.5 53t-127.5 -52.5t-52.5 -128.5q0 -75 52.5 -128t127.5 -53t128.5 53.5t53.5 127.5zM368 343h-39l-42 96h-45l-21 -96h-33l53 243h92
q31 0 51 -17.5t20 -46.5q0 -35 -25 -58.5t-55 -23.5zM369 519q0 18 -11.5 28t-30.5 10h-59l-19 -88h65q23 0 39 14.5t16 35.5z" />
    <glyph glyph-name="macron" unicode="&#xaf;" horiz-adv-x="258" 
d="M334 591h-257l14 66h257z" />
    <glyph glyph-name="degree" unicode="&#xb0;" horiz-adv-x="305" 
d="M351 545q0 -54 -39 -92.5t-93 -38.5q-55 0 -93 38t-38 93t38 93.5t93 38.5q54 0 93 -38.5t39 -93.5zM287 545q0 28 -20 48.5t-48 20.5t-48 -20.5t-20 -48.5t19.5 -47.5t47.5 -19.5t48.5 19.5t20.5 47.5z" />
    <glyph glyph-name="plusminus" unicode="&#xb1;" horiz-adv-x="383" 
d="M366 302h-123l-33 -146h-78l33 146h-123l15 71h124l30 139h79l-31 -139h123zM306 27h-325l15 71h325z" />
    <glyph glyph-name="twosuperior" unicode="&#xb2;" horiz-adv-x="293" 
d="M315 421h-248l15 68q130 109 170 152t40 76q0 19 -12 30t-33 11q-42 0 -78 -45l-41 55q54 59 126 59q54 0 89.5 -27t35.5 -75q0 -50 -40 -95.5t-151 -139.5h142z" />
    <glyph glyph-name="threesuperior" unicode="&#xb3;" horiz-adv-x="293" 
d="M340 541q0 -48 -37.5 -87.5t-97.5 -39.5q-45 0 -81 18.5t-52 51.5l63 48q20 -49 66 -49q26 0 41 21t15 47q0 40 -44 40q-23 0 -29 -1l15 69q5 -1 32 -1t43.5 16.5t16.5 43.5q0 19 -12.5 29.5t-33.5 10.5q-41 0 -72 -39l-44 49q53 59 124 59q57 0 90.5 -25t33.5 -71
q0 -38 -25.5 -71t-67.5 -38q56 -17 56 -81z" />
    <glyph glyph-name="acute" unicode="&#xb4;" horiz-adv-x="178" 
d="M279 700l-139 -144h-73l111 144h101z" />
    <glyph glyph-name="mu" unicode="&#xb5;" 
d="M63 -184h-112l148 667h112l-76 -345q-12 -51 26 -51q21 0 42.5 18.5t36.5 43.5l74 334h113l-107 -483h-113l13 59q-20 -27 -53.5 -47.5t-65.5 -23.5z" />
    <glyph glyph-name="paragraph" unicode="&#xb6;" horiz-adv-x="449" 
d="M319 -100h-58l158 709h-81l-158 -709h-58l94 423q-57 0 -97 44.5t-40 111.5q0 73 56.5 130.5t137.5 57.5h216z" />
    <glyph glyph-name="periodcentered" unicode="&#xb7;" horiz-adv-x="248" 
d="M117 171q-28 0 -47.5 19.5t-19.5 47.5q0 33 24 56.5t57 23.5q28 0 47.5 -20t19.5 -48q0 -32 -24 -55.5t-57 -23.5z" />
    <glyph glyph-name="cedilla" unicode="&#xb8;" horiz-adv-x="182" 
d="M3 -194q-57 0 -91 39l30 43q25 -33 62 -33q18 0 30 12t12 29q0 22 -22 22q-14 0 -25 -13l-36 24l49 82h57l-40 -63q9 9 23 9q23 0 37.5 -16t14.5 -43q0 -40 -29 -66t-72 -26z" />
    <glyph glyph-name="onesuperior" unicode="&#xb9;" horiz-adv-x="244" 
d="M240 421h-87l63 286l-65 -55l-41 52l143 117h75z" />
    <glyph glyph-name="ordmasculine" unicode="&#xba;" horiz-adv-x="308" 
d="M186 318q-55 0 -85 33t-30 88q0 75 43 142t114 67q55 0 85 -33t30 -88q0 -75 -43.5 -142t-113.5 -67zM189 385q32 0 51 53t19 93q0 49 -36 49q-32 0 -50.5 -53t-18.5 -93q0 -49 35 -49z" />
    <glyph glyph-name="guillemotright" unicode="&#xbb;" horiz-adv-x="385" 
d="M73 420h86l50 -180l-130 -177h-90l133 181zM220 420h86l50 -180l-130 -177h-90l133 181z" />
    <glyph glyph-name="onequarter" unicode="&#xbc;" horiz-adv-x="648" 
d="M581 667l-426 -667h-50l425 667h51zM601 90h-34l-19 -90h-86l20 90h-148l15 67l183 243h104l-54 -242h34zM496 158l33 144l-107 -144h74zM206 267h-87l63 286l-65 -55l-41 52l143 117h75z" />
    <glyph glyph-name="onehalf" unicode="&#xbd;" horiz-adv-x="683" 
d="M581 667l-426 -667h-50l425 667h51zM612 0h-248l15 68q130 109 170 152t40 76q0 19 -12 30t-33 11q-42 0 -78 -45l-41 55q54 59 126 59q54 0 89.5 -27t35.5 -75q0 -50 -40 -95.5t-151 -139.5h142zM206 267h-87l63 286l-65 -55l-41 52l143 117h75z" />
    <glyph glyph-name="threequarters" unicode="&#xbe;" horiz-adv-x="684" 
d="M617 667l-426 -667h-50l425 667h51zM637 90h-34l-19 -90h-86l20 90h-148l15 67l183 243h104l-54 -242h34zM532 158l33 144l-107 -144h74zM306 387q0 -48 -37.5 -87.5t-97.5 -39.5q-45 0 -81 18.5t-52 51.5l63 48q20 -49 66 -49q26 0 41 21t15 47q0 40 -44 40
q-23 0 -29 -1l15 69q5 -1 32 -1t43.5 16.5t16.5 43.5q0 19 -12.5 29.5t-33.5 10.5q-41 0 -72 -39l-44 49q53 59 124 59q57 0 90.5 -25t33.5 -71q0 -38 -25.5 -71t-67.5 -38q56 -17 56 -81z" />
    <glyph glyph-name="questiondown" unicode="&#xbf;" horiz-adv-x="287" 
d="M113 249l102 34q10 -23 10 -61t-15 -71t-36.5 -56t-43 -43.5t-36.5 -43.5t-15 -47q0 -21 12.5 -35.5t34.5 -14.5q30 0 56 23l35 -82q-60 -47 -130 -47q-60 0 -99.5 35t-39.5 87q0 40 17.5 75.5t43 61.5t51 49t43 49t17.5 51q0 19 -7 36zM206 494q28 0 47.5 -20t19.5 -48
q0 -33 -24 -56.5t-57 -23.5q-28 0 -47.5 20t-19.5 48q0 33 24 56.5t57 23.5z" />
    <glyph glyph-name="Agrave" unicode="&#xc0;" horiz-adv-x="424" 
d="M384 728h-72l-74 144h98zM369 0h-126l7 123h-125l-46 -123h-133l286 667h145zM260 234l17 292l-112 -292h95z" />
    <glyph glyph-name="Aacute" unicode="&#xc1;" horiz-adv-x="424" 
d="M466 872l-139 -144h-73l111 144h101zM369 0h-126l7 123h-125l-46 -123h-133l286 667h145zM260 234l17 292l-112 -292h95z" />
    <glyph glyph-name="Acircumflex" unicode="&#xc2;" horiz-adv-x="424" 
d="M435 728h-61l-33 92l-71 -92h-65l94 144h103zM369 0h-126l7 123h-125l-46 -123h-133l286 667h145zM260 234l17 292l-112 -292h95z" />
    <glyph glyph-name="Atilde" unicode="&#xc3;" horiz-adv-x="424" 
d="M365 726q-20 0 -32 11.5t-15 25.5t-10.5 25.5t-19.5 11.5q-26 0 -40 -68h-60q29 134 106 134q21 0 32.5 -11.5t15 -25.5t10.5 -25.5t19 -11.5q25 0 41 68h60q-30 -134 -107 -134zM369 0h-126l7 123h-125l-46 -123h-133l286 667h145zM260 234l17 292l-112 -292h95z" />
    <glyph glyph-name="Adieresis" unicode="&#xc4;" horiz-adv-x="424" 
d="M474 788q0 -27 -21 -48t-49 -21q-23 0 -38.5 16t-15.5 39q0 27 21 48t48 21q23 0 39 -16t16 -39zM311 788q0 -27 -21 -48t-48 -21q-23 0 -39 16t-16 39q0 27 21 48t48 21q24 0 39.5 -16t15.5 -39zM369 0h-126l7 123h-125l-46 -123h-133l286 667h145zM260 234l17 292
l-112 -292h95z" />
    <glyph glyph-name="Aring" unicode="&#xc5;" horiz-adv-x="424" 
d="M320 692q-35 0 -57 22.5t-22 57.5q0 40 29.5 69.5t69.5 29.5q35 0 57 -22.5t22 -57.5q0 -40 -29.5 -69.5t-69.5 -29.5zM326 741q17 0 30.5 13.5t13.5 31.5q0 15 -9.5 25.5t-24.5 10.5q-18 0 -31.5 -13.5t-13.5 -31.5q0 -15 10 -25.5t25 -10.5zM369 0h-126l7 123h-125
l-46 -123h-133l286 667h145zM260 234l17 292l-112 -292h95z" />
    <glyph glyph-name="AE" unicode="&#xc6;" horiz-adv-x="606" 
d="M522 0h-292l27 123h-111l-63 -123h-132l372 667h346l-24 -111h-166l-36 -161h159l-25 -111h-158l-39 -173h166zM282 234l61 280l-142 -280h81z" />
    <glyph glyph-name="Ccedilla" unicode="&#xc7;" horiz-adv-x="429" 
d="M152 -194q-57 0 -91 39l30 43q25 -33 62 -33q18 0 30 12t12 29q0 22 -22 22q-14 0 -25 -13l-36 24l39 66q-121 32 -121 205q0 49 9.5 109t31.5 126t53.5 119.5t81 88.5t107.5 35q81 0 120 -55t42 -135l-116 -23q-7 101 -54 101q-43 0 -78.5 -73.5t-51.5 -156t-16 -139.5
q0 -97 51 -97q43 0 83 82l101 -43q-71 -151 -191 -151l-25 -40q9 9 23 9q23 0 37.5 -16t14.5 -43q0 -40 -29 -66t-72 -26z" />
    <glyph glyph-name="Egrave" unicode="&#xc8;" horiz-adv-x="379" 
d="M372 728h-72l-74 144h98zM290 0h-292l147 667h292l-24 -111h-166l-36 -161h159l-25 -111h-158l-39 -173h166z" />
    <glyph glyph-name="Eacute" unicode="&#xc9;" horiz-adv-x="379" 
d="M455 872l-139 -144h-73l111 144h101zM290 0h-292l147 667h292l-24 -111h-166l-36 -161h159l-25 -111h-158l-39 -173h166z" />
    <glyph glyph-name="Ecircumflex" unicode="&#xca;" horiz-adv-x="379" 
d="M421 728h-61l-33 92l-71 -92h-65l94 144h103zM290 0h-292l147 667h292l-24 -111h-166l-36 -161h159l-25 -111h-158l-39 -173h166z" />
    <glyph glyph-name="Edieresis" unicode="&#xcb;" horiz-adv-x="379" 
d="M462 788q0 -27 -21 -48t-49 -21q-23 0 -38.5 16t-15.5 39q0 27 21 48t48 21q23 0 39 -16t16 -39zM299 788q0 -27 -21 -48t-48 -21q-23 0 -39 16t-16 39q0 27 21 48t48 21q24 0 39.5 -16t15.5 -39zM290 0h-292l147 667h292l-24 -111h-166l-36 -161h159l-25 -111h-158
l-39 -173h166z" />
    <glyph glyph-name="Igrave" unicode="&#xcc;" horiz-adv-x="230" 
d="M286 728h-72l-74 144h98zM124 0h-126l147 667h126z" />
    <glyph glyph-name="Iacute" unicode="&#xcd;" horiz-adv-x="230" 
d="M370 872l-139 -144h-73l111 144h101zM124 0h-126l147 667h126z" />
    <glyph glyph-name="Icircumflex" unicode="&#xce;" horiz-adv-x="230" 
d="M337 728h-61l-33 92l-71 -92h-65l94 144h103zM124 0h-126l147 667h126z" />
    <glyph glyph-name="Idieresis" unicode="&#xcf;" horiz-adv-x="230" 
d="M379 788q0 -27 -21 -48t-49 -21q-23 0 -38.5 16t-15.5 39q0 27 21 48t48 21q23 0 39 -16t16 -39zM216 788q0 -27 -21 -48t-48 -21q-23 0 -39 16t-16 39q0 27 21 48t48 21q24 0 39.5 -16t15.5 -39zM124 0h-126l147 667h126z" />
    <glyph glyph-name="Eth" unicode="&#xd0;" horiz-adv-x="498" 
d="M188 0h-167l62 283h-59l23 101h58l63 283h162q70 0 120 -56.5t50 -160.5q0 -36 -6.5 -79.5t-20 -96t-38 -100t-57.5 -87t-82 -63.5t-108 -24zM270 556l-38 -172h69l-22 -101h-70l-38 -172h39q41 0 74.5 40.5t51.5 98.5t27 110.5t9 87.5q0 55 -18.5 81.5t-46.5 26.5h-37z
" />
    <glyph glyph-name="Ntilde" unicode="&#xd1;" horiz-adv-x="484" 
d="M398 726q-20 0 -32 11.5t-15 25.5t-10.5 25.5t-19.5 11.5q-26 0 -40 -68h-60q29 134 106 134q21 0 32.5 -11.5t15 -25.5t10.5 -25.5t19 -11.5q25 0 41 68h60q-30 -134 -107 -134zM378 0h-118l-52 384l-84 -384h-126l147 667h126l46 -370l82 370h126z" />
    <glyph glyph-name="Ograve" unicode="&#xd2;" horiz-adv-x="478" 
d="M410 728h-72l-74 144h98zM203 -12q-86 0 -129.5 58.5t-43.5 153.5q0 49 9.5 108.5t32 125.5t54 120t80.5 89t107 35q86 0 129.5 -60t43.5 -154q0 -63 -16.5 -140t-48.5 -154.5t-89.5 -129.5t-128.5 -52zM210 100q42 0 78 71.5t53 154.5t17 141q0 99 -53 99
q-32 0 -61 -42.5t-47 -103.5t-28 -121t-10 -102q0 -97 51 -97z" />
    <glyph glyph-name="Oacute" unicode="&#xd3;" horiz-adv-x="478" 
d="M493 872l-139 -144h-73l111 144h101zM203 -12q-86 0 -129.5 58.5t-43.5 153.5q0 49 9.5 108.5t32 125.5t54 120t80.5 89t107 35q86 0 129.5 -60t43.5 -154q0 -63 -16.5 -140t-48.5 -154.5t-89.5 -129.5t-128.5 -52zM210 100q42 0 78 71.5t53 154.5t17 141q0 99 -53 99
q-32 0 -61 -42.5t-47 -103.5t-28 -121t-10 -102q0 -97 51 -97z" />
    <glyph glyph-name="Ocircumflex" unicode="&#xd4;" horiz-adv-x="478" 
d="M462 728h-61l-33 92l-71 -92h-65l94 144h103zM203 -12q-86 0 -129.5 58.5t-43.5 153.5q0 49 9.5 108.5t32 125.5t54 120t80.5 89t107 35q86 0 129.5 -60t43.5 -154q0 -63 -16.5 -140t-48.5 -154.5t-89.5 -129.5t-128.5 -52zM210 100q42 0 78 71.5t53 154.5t17 141
q0 99 -53 99q-32 0 -61 -42.5t-47 -103.5t-28 -121t-10 -102q0 -97 51 -97z" />
    <glyph glyph-name="Otilde" unicode="&#xd5;" horiz-adv-x="478" 
d="M397 726q-20 0 -32 11.5t-15 25.5t-10.5 25.5t-19.5 11.5q-26 0 -40 -68h-60q29 134 106 134q21 0 32.5 -11.5t15 -25.5t10.5 -25.5t19 -11.5q25 0 41 68h60q-30 -134 -107 -134zM203 -12q-86 0 -129.5 58.5t-43.5 153.5q0 49 9.5 108.5t32 125.5t54 120t80.5 89t107 35
q86 0 129.5 -60t43.5 -154q0 -63 -16.5 -140t-48.5 -154.5t-89.5 -129.5t-128.5 -52zM210 100q42 0 78 71.5t53 154.5t17 141q0 99 -53 99q-32 0 -61 -42.5t-47 -103.5t-28 -121t-10 -102q0 -97 51 -97z" />
    <glyph glyph-name="Odieresis" unicode="&#xd6;" horiz-adv-x="478" 
d="M501 788q0 -27 -21 -48t-49 -21q-23 0 -38.5 16t-15.5 39q0 27 21 48t48 21q23 0 39 -16t16 -39zM338 788q0 -27 -21 -48t-48 -21q-23 0 -39 16t-16 39q0 27 21 48t48 21q24 0 39.5 -16t15.5 -39zM203 -12q-86 0 -129.5 58.5t-43.5 153.5q0 49 9.5 108.5t32 125.5t54 120
t80.5 89t107 35q86 0 129.5 -60t43.5 -154q0 -63 -16.5 -140t-48.5 -154.5t-89.5 -129.5t-128.5 -52zM210 100q42 0 78 71.5t53 154.5t17 141q0 99 -53 99q-32 0 -61 -42.5t-47 -103.5t-28 -121t-10 -102q0 -97 51 -97z" />
    <glyph glyph-name="multiply" unicode="&#xd7;" horiz-adv-x="383" 
d="M281 185l-76 98l-126 -103l-44 56l127 103l-77 98l56 46l76 -98l126 103l44 -56l-125 -103l76 -98z" />
    <glyph glyph-name="Oslash" unicode="&#xd8;" horiz-adv-x="478" 
d="M203 -12q-73 0 -118 45l-23 -33h-73l61 87q-20 47 -20 113q0 49 9.5 108.5t32 125.5t54 120t80.5 89t107 35q73 0 118 -47l25 36h73l-63 -90q20 -51 20 -113q0 -63 -16.5 -140t-48.5 -154.5t-89.5 -129.5t-128.5 -52zM305 566q-37 0 -69.5 -56.5t-49.5 -125.5t-24 -137
l190 272q-11 47 -47 47zM210 100q37 0 69.5 56t50.5 125.5t25 136.5l-191 -273q9 -45 46 -45z" />
    <glyph glyph-name="Ugrave" unicode="&#xd9;" horiz-adv-x="484" 
d="M414 728h-72l-74 144h98zM209 -12q-75 0 -123.5 45.5t-48.5 121.5q0 20 5 43l103 469h126l-106 -480q-3 -21 -3 -29q0 -28 15.5 -43.5t40.5 -15.5q29 0 47 20t29 68l105 480h126l-105 -474q-22 -103 -77.5 -154t-133.5 -51z" />
    <glyph glyph-name="Uacute" unicode="&#xda;" horiz-adv-x="484" 
d="M497 872l-139 -144h-73l111 144h101zM209 -12q-75 0 -123.5 45.5t-48.5 121.5q0 20 5 43l103 469h126l-106 -480q-3 -21 -3 -29q0 -28 15.5 -43.5t40.5 -15.5q29 0 47 20t29 68l105 480h126l-105 -474q-22 -103 -77.5 -154t-133.5 -51z" />
    <glyph glyph-name="Ucircumflex" unicode="&#xdb;" horiz-adv-x="484" 
d="M465 728h-61l-33 92l-71 -92h-65l94 144h103zM209 -12q-75 0 -123.5 45.5t-48.5 121.5q0 20 5 43l103 469h126l-106 -480q-3 -21 -3 -29q0 -28 15.5 -43.5t40.5 -15.5q29 0 47 20t29 68l105 480h126l-105 -474q-22 -103 -77.5 -154t-133.5 -51z" />
    <glyph glyph-name="Udieresis" unicode="&#xdc;" horiz-adv-x="484" 
d="M504 788q0 -27 -21 -48t-49 -21q-23 0 -38.5 16t-15.5 39q0 27 21 48t48 21q23 0 39 -16t16 -39zM341 788q0 -27 -21 -48t-48 -21q-23 0 -39 16t-16 39q0 27 21 48t48 21q24 0 39.5 -16t15.5 -39zM209 -12q-75 0 -123.5 45.5t-48.5 121.5q0 20 5 43l103 469h126
l-106 -480q-3 -21 -3 -29q0 -28 15.5 -43.5t40.5 -15.5q29 0 47 20t29 68l105 480h126l-105 -474q-22 -103 -77.5 -154t-133.5 -51z" />
    <glyph glyph-name="Yacute" unicode="&#xdd;" horiz-adv-x="430" 
d="M471 872l-139 -144h-73l111 144h101zM224 0h-126l61 276l-70 391h128l26 -269l146 269h138l-242 -391z" />
    <glyph glyph-name="Thorn" unicode="&#xde;" horiz-adv-x="441" 
d="M124 0h-126l147 667h126l-24 -111h39q70 0 114.5 -47t44.5 -122q0 -45 -14 -88.5t-42 -80.5t-75.5 -60t-107.5 -23h-53zM216 245q44 0 71 39t27 91q0 33 -15.5 52t-41.5 19h-35l-44 -201h38z" />
    <glyph glyph-name="germandbls" unicode="&#xdf;" horiz-adv-x="516" 
d="M483 155q0 -64 -46.5 -115.5t-121.5 -51.5q-101 0 -153 69l57 73q35 -52 84 -52q23 0 40 17t17 43q0 16 -13 31t-31 28.5t-36 29t-31 39.5t-13 54q0 36 14 63t34 43t40 30t34 31t14 38q0 23 -18.5 37.5t-48.5 14.5q-68 0 -87 -87l-108 -490h-112l107 490q19 85 73 136
t136 51q73 0 124 -40t51 -100q0 -29 -10 -52.5t-25.5 -38.5t-33.5 -29t-33.5 -24.5t-25.5 -23.5t-10 -28q0 -16 13.5 -30t33 -27t39 -29t33 -41.5t13.5 -58.5z" />
    <glyph glyph-name="agrave" unicode="&#xe0;" horiz-adv-x="414" 
d="M341 556h-72l-74 144h98zM325 0h-112l10 47q-38 -59 -104 -59q-48 0 -80 33t-32 90q0 80 44 137.5t110 57.5q32 0 62 -16t43 -45l15 64q4 16 4 33q0 28 -19.5 43.5t-50.5 15.5q-53 0 -100 -39l-25 83q62 50 153 50q70 0 115 -31.5t45 -90.5q0 -23 -6 -48zM174 65
q39 0 63 44l16 71q-13 49 -60 49q-33 0 -52 -33.5t-19 -73.5q0 -57 52 -57z" />
    <glyph glyph-name="aacute" unicode="&#xe1;" horiz-adv-x="414" 
d="M425 700l-139 -144h-73l111 144h101zM325 0h-112l10 47q-38 -59 -104 -59q-48 0 -80 33t-32 90q0 80 44 137.5t110 57.5q32 0 62 -16t43 -45l15 64q4 16 4 33q0 28 -19.5 43.5t-50.5 15.5q-53 0 -100 -39l-25 83q62 50 153 50q70 0 115 -31.5t45 -90.5q0 -23 -6 -48z
M174 65q39 0 63 44l16 71q-13 49 -60 49q-33 0 -52 -33.5t-19 -73.5q0 -57 52 -57z" />
    <glyph glyph-name="acircumflex" unicode="&#xe2;" horiz-adv-x="414" 
d="M394 556h-61l-33 92l-71 -92h-65l94 144h103zM325 0h-112l10 47q-38 -59 -104 -59q-48 0 -80 33t-32 90q0 80 44 137.5t110 57.5q32 0 62 -16t43 -45l15 64q4 16 4 33q0 28 -19.5 43.5t-50.5 15.5q-53 0 -100 -39l-25 83q62 50 153 50q70 0 115 -31.5t45 -90.5
q0 -23 -6 -48zM174 65q39 0 63 44l16 71q-13 49 -60 49q-33 0 -52 -33.5t-19 -73.5q0 -57 52 -57z" />
    <glyph glyph-name="atilde" unicode="&#xe3;" horiz-adv-x="414" 
d="M327 554q-20 0 -32 11.5t-15 25.5t-10.5 25.5t-19.5 11.5q-26 0 -40 -68h-60q29 134 106 134q21 0 32.5 -11.5t15 -25.5t10.5 -25.5t19 -11.5q25 0 41 68h60q-30 -134 -107 -134zM325 0h-112l10 47q-38 -59 -104 -59q-48 0 -80 33t-32 90q0 80 44 137.5t110 57.5
q32 0 62 -16t43 -45l15 64q4 16 4 33q0 28 -19.5 43.5t-50.5 15.5q-53 0 -100 -39l-25 83q62 50 153 50q70 0 115 -31.5t45 -90.5q0 -23 -6 -48zM174 65q39 0 63 44l16 71q-13 49 -60 49q-33 0 -52 -33.5t-19 -73.5q0 -57 52 -57z" />
    <glyph glyph-name="adieresis" unicode="&#xe4;" horiz-adv-x="414" 
d="M433 616q0 -27 -21 -48t-49 -21q-23 0 -38.5 16t-15.5 39q0 27 21 48t48 21q23 0 39 -16t16 -39zM270 616q0 -27 -21 -48t-48 -21q-23 0 -39 16t-16 39q0 27 21 48t48 21q24 0 39.5 -16t15.5 -39zM325 0h-112l10 47q-38 -59 -104 -59q-48 0 -80 33t-32 90q0 80 44 137.5
t110 57.5q32 0 62 -16t43 -45l15 64q4 16 4 33q0 28 -19.5 43.5t-50.5 15.5q-53 0 -100 -39l-25 83q62 50 153 50q70 0 115 -31.5t45 -90.5q0 -23 -6 -48zM174 65q39 0 63 44l16 71q-13 49 -60 49q-33 0 -52 -33.5t-19 -73.5q0 -57 52 -57z" />
    <glyph glyph-name="aring" unicode="&#xe5;" horiz-adv-x="414" 
d="M283 549q-35 0 -57 22.5t-22 57.5q0 40 29.5 69.5t69.5 29.5q35 0 57 -22.5t22 -57.5q0 -40 -29.5 -69.5t-69.5 -29.5zM289 598q17 0 30.5 13.5t13.5 31.5q0 15 -9.5 25.5t-24.5 10.5q-18 0 -31.5 -13.5t-13.5 -31.5q0 -15 10 -25.5t25 -10.5zM325 0h-112l10 47
q-38 -59 -104 -59q-48 0 -80 33t-32 90q0 80 44 137.5t110 57.5q32 0 62 -16t43 -45l15 64q4 16 4 33q0 28 -19.5 43.5t-50.5 15.5q-53 0 -100 -39l-25 83q62 50 153 50q70 0 115 -31.5t45 -90.5q0 -23 -6 -48zM174 65q39 0 63 44l16 71q-13 49 -60 49q-33 0 -52 -33.5
t-19 -73.5q0 -57 52 -57z" />
    <glyph glyph-name="ae" unicode="&#xe6;" horiz-adv-x="642" 
d="M609 204h-244q-4 -19 -4 -41q0 -36 21 -59.5t60 -23.5q43 0 83 43l39 -71q-64 -64 -143 -64q-97 0 -133 77q-71 -77 -160 -77q-53 0 -87 35t-34 93q0 80 43.5 135t110.5 55q32 0 62.5 -15.5t42.5 -44.5l14 63q4 16 4 32q0 28 -19 44t-50 16q-53 0 -101 -39l-24 83
q64 50 153 50q90 0 114 -72q54 72 130 72q66 0 103.5 -41t37.5 -124q0 -56 -19 -126zM382 284h138q6 22 6 47q0 32 -14.5 52t-40.5 20q-65 0 -89 -119zM249 122q-1 6 -1 21q0 21 4 37q-11 49 -59 49q-31 0 -51 -32.5t-20 -74.5q0 -57 51 -57q41 0 76 57z" />
    <glyph glyph-name="ccedilla" unicode="&#xe7;" horiz-adv-x="344" 
d="M127 -194q-57 0 -91 39l30 43q25 -33 62 -33q18 0 30 12t12 29q0 22 -22 22q-14 0 -25 -13l-36 24l39 66q-109 30 -109 174q0 75 26 148.5t80.5 125.5t123.5 52q81 0 122 -50l-54 -84q-20 34 -59 34q-53 0 -88 -71.5t-35 -144.5q0 -91 72 -91q31 0 59 26l19 -88
q-42 -38 -104 -38h-1l-25 -40q9 9 23 9q23 0 37.5 -16t14.5 -43q0 -40 -29 -66t-72 -26z" />
    <glyph glyph-name="egrave" unicode="&#xe8;" horiz-adv-x="404" 
d="M182 -12q-78 0 -121.5 47.5t-43.5 134.5q0 47 14 101t40.5 105t71.5 85t99 34q74 0 111 -43t37 -122q0 -51 -20 -126h-245q-4 -19 -4 -41q0 -34 19.5 -58.5t62.5 -24.5t83 42l40 -70q-61 -64 -144 -64zM278 284h4q5 27 5 49q0 31 -14.5 50.5t-40.5 19.5
q-36 0 -59.5 -36.5t-31.5 -82.5h137zM342 556h-72l-74 144h98z" />
    <glyph glyph-name="eacute" unicode="&#xe9;" horiz-adv-x="404" 
d="M182 -12q-78 0 -121.5 47.5t-43.5 134.5q0 47 14 101t40.5 105t71.5 85t99 34q74 0 111 -43t37 -122q0 -51 -20 -126h-245q-4 -19 -4 -41q0 -34 19.5 -58.5t62.5 -24.5t83 42l40 -70q-61 -64 -144 -64zM278 284h4q5 27 5 49q0 31 -14.5 50.5t-40.5 19.5
q-36 0 -59.5 -36.5t-31.5 -82.5h137zM426 700l-139 -144h-73l111 144h101z" />
    <glyph glyph-name="ecircumflex" unicode="&#xea;" horiz-adv-x="404" 
d="M182 -12q-78 0 -121.5 47.5t-43.5 134.5q0 47 14 101t40.5 105t71.5 85t99 34q74 0 111 -43t37 -122q0 -51 -20 -126h-245q-4 -19 -4 -41q0 -34 19.5 -58.5t62.5 -24.5t83 42l40 -70q-61 -64 -144 -64zM278 284h4q5 27 5 49q0 31 -14.5 50.5t-40.5 19.5
q-36 0 -59.5 -36.5t-31.5 -82.5h137zM390 556h-61l-33 92l-71 -92h-65l94 144h103z" />
    <glyph glyph-name="edieresis" unicode="&#xeb;" horiz-adv-x="404" 
d="M182 -12q-78 0 -121.5 47.5t-43.5 134.5q0 47 14 101t40.5 105t71.5 85t99 34q74 0 111 -43t37 -122q0 -51 -20 -126h-245q-4 -19 -4 -41q0 -34 19.5 -58.5t62.5 -24.5t83 42l40 -70q-61 -64 -144 -64zM278 284h4q5 27 5 49q0 31 -14.5 50.5t-40.5 19.5
q-36 0 -59.5 -36.5t-31.5 -82.5h137zM429 616q0 -27 -21 -48t-49 -21q-23 0 -38.5 16t-15.5 39q0 27 21 48t48 21q23 0 39 -16t16 -39zM266 616q0 -27 -21 -48t-48 -21q-23 0 -39 16t-16 39q0 27 21 48t48 21q24 0 39.5 -16t15.5 -39z" />
    <glyph glyph-name="igrave" unicode="&#xec;" horiz-adv-x="204" 
d="M235 556h-72l-74 144h98zM104 0h-112l107 483h112z" />
    <glyph glyph-name="iacute" unicode="&#xed;" horiz-adv-x="204" 
d="M318 700l-139 -144h-73l111 144h101zM104 0h-112l107 483h112z" />
    <glyph glyph-name="icircumflex" unicode="&#xee;" horiz-adv-x="204" 
d="M287 556h-61l-33 92l-71 -92h-65l94 144h103zM104 0h-112l107 483h112z" />
    <glyph glyph-name="idieresis" unicode="&#xef;" horiz-adv-x="204" 
d="M326 616q0 -27 -21 -48t-49 -21q-23 0 -38.5 16t-15.5 39q0 27 21 48t48 21q23 0 39 -16t16 -39zM163 616q0 -27 -21 -48t-48 -21q-23 0 -39 16t-16 39q0 27 21 48t48 21q24 0 39.5 -16t15.5 -39zM104 0h-112l107 483h112z" />
    <glyph glyph-name="eth" unicode="&#xf0;" horiz-adv-x="417" 
d="M192 500l-13 55l104 31q-10 54 -22 82l111 34q12 -38 23 -83l68 20l12 -54l-69 -21q9 -66 9 -135q0 -56 -7.5 -114.5t-26 -117.5t-45 -105t-68 -75t-91.5 -29q-81 0 -121.5 46t-40.5 126q0 65 22 134t69 120.5t105 51.5q37 0 61 -22t31 -57q-2 77 -11 143zM179 88
q43 0 71.5 71.5t28.5 134.5q0 29 -12 50.5t-39 21.5q-30 0 -53.5 -39.5t-34 -85t-10.5 -80.5q0 -73 49 -73z" />
    <glyph glyph-name="ntilde" unicode="&#xf1;" 
d="M320 0h-113l76 343q3 15 3 20q0 32 -31 32q-39 0 -78 -64l-73 -331h-112l107 483h112l-13 -61q54 73 121 73q42 0 66 -22t24 -59q0 -5 -4 -29zM330 554q-20 0 -32 11.5t-15 25.5t-10.5 25.5t-19.5 11.5q-26 0 -40 -68h-60q29 134 106 134q21 0 32.5 -11.5t15 -25.5
t10.5 -25.5t19 -11.5q25 0 41 68h60q-30 -134 -107 -134z" />
    <glyph glyph-name="ograve" unicode="&#xf2;" horiz-adv-x="417" 
d="M173 -12q-76 0 -116 46t-40 131q0 73 25 147t78 128.5t122 54.5q76 0 116 -46t40 -131q0 -73 -25 -147t-78 -128.5t-122 -54.5zM179 88q32 0 57.5 45t36.5 97t11 90q0 75 -48 75q-32 0 -57.5 -45.5t-36.5 -97.5t-11 -90q0 -74 48 -74zM342 556h-72l-74 144h98z" />
    <glyph glyph-name="oacute" unicode="&#xf3;" horiz-adv-x="417" 
d="M173 -12q-76 0 -116 46t-40 131q0 73 25 147t78 128.5t122 54.5q76 0 116 -46t40 -131q0 -73 -25 -147t-78 -128.5t-122 -54.5zM179 88q32 0 57.5 45t36.5 97t11 90q0 75 -48 75q-32 0 -57.5 -45.5t-36.5 -97.5t-11 -90q0 -74 48 -74zM425 700l-139 -144h-73l111 144h101
z" />
    <glyph glyph-name="ocircumflex" unicode="&#xf4;" horiz-adv-x="417" 
d="M173 -12q-76 0 -116 46t-40 131q0 73 25 147t78 128.5t122 54.5q76 0 116 -46t40 -131q0 -73 -25 -147t-78 -128.5t-122 -54.5zM179 88q32 0 57.5 45t36.5 97t11 90q0 75 -48 75q-32 0 -57.5 -45.5t-36.5 -97.5t-11 -90q0 -74 48 -74zM393 556h-61l-33 92l-71 -92h-65
l94 144h103z" />
    <glyph glyph-name="otilde" unicode="&#xf5;" horiz-adv-x="417" 
d="M173 -12q-76 0 -116 46t-40 131q0 73 25 147t78 128.5t122 54.5q76 0 116 -46t40 -131q0 -73 -25 -147t-78 -128.5t-122 -54.5zM179 88q32 0 57.5 45t36.5 97t11 90q0 75 -48 75q-32 0 -57.5 -45.5t-36.5 -97.5t-11 -90q0 -74 48 -74zM327 554q-20 0 -32 11.5t-15 25.5
t-10.5 25.5t-19.5 11.5q-26 0 -40 -68h-60q29 134 106 134q21 0 32.5 -11.5t15 -25.5t10.5 -25.5t19 -11.5q25 0 41 68h60q-30 -134 -107 -134z" />
    <glyph glyph-name="odieresis" unicode="&#xf6;" horiz-adv-x="417" 
d="M173 -12q-76 0 -116 46t-40 131q0 73 25 147t78 128.5t122 54.5q76 0 116 -46t40 -131q0 -73 -25 -147t-78 -128.5t-122 -54.5zM179 88q32 0 57.5 45t36.5 97t11 90q0 75 -48 75q-32 0 -57.5 -45.5t-36.5 -97.5t-11 -90q0 -74 48 -74zM433 616q0 -27 -21 -48t-49 -21
q-23 0 -38.5 16t-15.5 39q0 27 21 48t48 21q23 0 39 -16t16 -39zM270 616q0 -27 -21 -48t-48 -21q-23 0 -39 16t-16 39q0 27 21 48t48 21q24 0 39.5 -16t15.5 -39z" />
    <glyph glyph-name="divide" unicode="&#xf7;" horiz-adv-x="374" 
d="M358 302h-316l15 71h316zM170 135q-21 0 -36 14.5t-15 36.5q0 26 18.5 44t43.5 18q21 0 36 -15.5t15 -37.5q0 -25 -18.5 -42.5t-43.5 -17.5zM235 425q-22 0 -37 15t-15 36q0 26 18.5 44t43.5 18q22 0 37 -15.5t15 -36.5q0 -25 -18.5 -43t-43.5 -18z" />
    <glyph glyph-name="oslash" unicode="&#xf8;" horiz-adv-x="417" 
d="M45 0h-67l57 69q-18 39 -18 96q0 73 25 147t78 128.5t122 54.5q67 0 108 -39l22 27h65l-57 -70q18 -39 18 -95q0 -73 -25 -147t-78 -128.5t-122 -54.5q-68 0 -108 37zM236 395q-41 0 -68.5 -67t-35.5 -139l145 177q-11 29 -41 29zM179 88q41 0 68.5 67t34.5 138
l-144 -178q11 -27 41 -27z" />
    <glyph glyph-name="ugrave" unicode="&#xf9;" 
d="M99 483h112l-75 -343q-3 -10 -3 -20q0 -32 30 -32q41 0 77 62l74 333h113l-107 -483h-113l14 61q-54 -73 -122 -73q-41 0 -65 22t-24 59q0 17 4 29zM343 556h-72l-74 144h98z" />
    <glyph glyph-name="uacute" unicode="&#xfa;" 
d="M99 483h112l-75 -343q-3 -10 -3 -20q0 -32 30 -32q41 0 77 62l74 333h113l-107 -483h-113l14 61q-54 -73 -122 -73q-41 0 -65 22t-24 59q0 17 4 29zM426 700l-139 -144h-73l111 144h101z" />
    <glyph glyph-name="ucircumflex" unicode="&#xfb;" 
d="M99 483h112l-75 -343q-3 -10 -3 -20q0 -32 30 -32q41 0 77 62l74 333h113l-107 -483h-113l14 61q-54 -73 -122 -73q-41 0 -65 22t-24 59q0 17 4 29zM395 556h-61l-33 92l-71 -92h-65l94 144h103z" />
    <glyph glyph-name="udieresis" unicode="&#xfc;" 
d="M99 483h112l-75 -343q-3 -10 -3 -20q0 -32 30 -32q41 0 77 62l74 333h113l-107 -483h-113l14 61q-54 -73 -122 -73q-41 0 -65 22t-24 59q0 17 4 29zM435 616q0 -27 -21 -48t-49 -21q-23 0 -38.5 16t-15.5 39q0 27 21 48t48 21q23 0 39 -16t16 -39zM272 616q0 -27 -21 -48
t-48 -21q-23 0 -39 16t-16 39q0 27 21 48t48 21q24 0 39.5 -16t15.5 -39z" />
    <glyph glyph-name="yacute" unicode="&#xfd;" 
d="M426 700l-139 -144h-73l111 144h101zM117 -196q-51 0 -93.5 17t-62.5 44l58 85q34 -48 95 -48q71 0 95 107l15 68q-23 -31 -55.5 -51.5t-65.5 -20.5q-42 0 -66 22t-24 60q0 11 4 27l82 369h112l-73 -327q-2 -14 -2 -20q0 -32 31 -32q42 0 77 64l70 315h113l-105 -474
q-24 -108 -75.5 -156.5t-129.5 -48.5z" />
    <glyph glyph-name="thorn" unicode="&#xfe;" horiz-adv-x="423" 
d="M213 -12q-74 0 -95 74l-55 -246h-112l188 851h112l-53 -242q44 70 103 70q106 0 106 -154q0 -50 -12 -108.5t-35 -114.5t-61.5 -93t-85.5 -37zM187 88q47 0 75.5 84.5t28.5 153.5t-48 69q-17 0 -34.5 -16t-29.5 -40l-43 -193q4 -26 18 -42t33 -16z" />
    <glyph glyph-name="ydieresis" unicode="&#xff;" 
d="M434 616q0 -27 -21 -48t-49 -21q-23 0 -38.5 16t-15.5 39q0 27 21 48t48 21q23 0 39 -16t16 -39zM271 616q0 -27 -21 -48t-48 -21q-23 0 -39 16t-16 39q0 27 21 48t48 21q24 0 39.5 -16t15.5 -39zM117 -196q-51 0 -93.5 17t-62.5 44l58 85q34 -48 95 -48q71 0 95 107
l15 68q-23 -31 -55.5 -51.5t-65.5 -20.5q-42 0 -66 22t-24 60q0 11 4 27l82 369h112l-73 -327q-2 -14 -2 -20q0 -32 31 -32q42 0 77 64l70 315h113l-105 -474q-24 -108 -75.5 -156.5t-129.5 -48.5z" />
    <glyph glyph-name="dotlessi" unicode="&#x131;" horiz-adv-x="204" 
d="M104 0h-112l107 483h112z" />
    <glyph glyph-name="Lslash" unicode="&#x141;" horiz-adv-x="374" 
d="M10 219l23 104l51 26l70 318h126l-55 -246l68 35l-23 -104l-68 -35l-45 -206h166l-24 -111h-292l54 245z" />
    <glyph glyph-name="lslash" unicode="&#x142;" horiz-adv-x="260" 
d="M13 234l19 84l54 28l72 321h112l-57 -257l55 28l-19 -84l-54 -28l-42 -189q-3 -18 -3 -23q1 -26 26 -26q14 0 25 11l2 -94q-22 -17 -61 -17q-112 0 -112 85q0 22 6 44l32 145z" />
    <glyph glyph-name="OE" unicode="&#x152;" horiz-adv-x="632" 
d="M548 0h-292l11 50q-42 -62 -104 -62q-61 0 -97.5 56.5t-36.5 155.5q0 66 18 145t51 155t88.5 126.5t122.5 50.5q28 0 51.5 -14.5t32.5 -45.5l10 50h292l-24 -111h-166l-36 -161h159l-25 -111h-158l-39 -173h166zM298 191l63 285q-3 89 -52 89q-46 0 -82.5 -71.5
t-52.5 -154t-16 -142.5q0 -97 49 -97q23 0 47.5 24t43.5 67z" />
    <glyph glyph-name="oe" unicode="&#x153;" horiz-adv-x="650" 
d="M618 204h-242q-4 -24 -4 -41q0 -83 79 -83q43 0 82 43l40 -71q-61 -64 -142 -64q-100 0 -123 89q-61 -89 -137 -89q-77 0 -115.5 46.5t-38.5 130.5q0 77 25.5 151.5t78 126.5t119.5 52q87 0 117 -86q53 86 134 86q69 0 107.5 -40.5t38.5 -124.5q0 -54 -19 -126zM392 284
h137q6 22 6 49q0 70 -53 70q-67 0 -90 -119zM280 320q0 75 -48 75q-31 0 -55.5 -44t-35 -96t-10.5 -93q0 -75 48 -75q45 0 73 83t28 150z" />
    <glyph glyph-name="Scaron" unicode="&#x160;" horiz-adv-x="389" 
d="M376 728h-103l-33 144h61l33 -92l71 92h65zM152 -12q-54 0 -101.5 21t-72.5 55l72 93q16 -25 44 -41t57 -16q32 0 55 25t23 66q0 27 -23.5 58t-52 56.5t-52 67.5t-23.5 90q0 89 60 152t146 63q44 0 86 -17t67 -47l-67 -93q-32 45 -87 45q-33 0 -52.5 -23.5t-19.5 -56.5
q0 -26 23.5 -57t51.5 -56.5t51.5 -68t23.5 -90.5q0 -94 -59 -160t-150 -66z" />
    <glyph glyph-name="scaron" unicode="&#x161;" horiz-adv-x="345" 
d="M133 -12q-52 0 -95 20.5t-62 50.5l62 73q34 -55 96 -55q26 0 44 17t18 41q0 20 -23 41t-50 37t-50 48.5t-23 73.5q0 66 43.5 113t120.5 47q42 0 81 -17.5t64 -48.5l-59 -71q-11 18 -36 33t-51 15q-25 0 -40 -14t-15 -37q0 -15 15.5 -30.5t37.5 -30t44 -32.5t37.5 -45.5
t15.5 -61.5q0 -68 -48.5 -117.5t-126.5 -49.5zM300 556h-103l-33 144h61l33 -92l71 92h65z" />
    <glyph glyph-name="Ydieresis" unicode="&#x178;" horiz-adv-x="430" 
d="M479 788q0 -27 -21 -48t-49 -21q-23 0 -38.5 16t-15.5 39q0 27 21 48t48 21q23 0 39 -16t16 -39zM316 788q0 -27 -21 -48t-48 -21q-23 0 -39 16t-16 39q0 27 21 48t48 21q24 0 39.5 -16t15.5 -39zM224 0h-126l61 276l-70 391h128l26 -269l146 269h138l-242 -391z" />
    <glyph glyph-name="Zcaron" unicode="&#x17d;" horiz-adv-x="376" 
d="M348 728h-103l-33 144h61l33 -92l71 92h65zM292 0h-317l23 107l262 449h-162l24 111h310l-22 -102l-265 -454h172z" />
    <glyph glyph-name="zcaron" unicode="&#x17e;" horiz-adv-x="335" 
d="M255 0h-282l18 85l207 300h-140l22 98h278l-19 -82l-208 -303h145zM287 556h-103l-33 144h61l33 -92l71 92h65z" />
    <glyph glyph-name="florin" unicode="&#x192;" horiz-adv-x="397" 
d="M87 -161h-128l89 404h-42v99h64l46 205q13 61 50 95.5t93 34.5q61 0 94 -26l-35 -97q-12 12 -32 12q-37 0 -49 -50l-38 -174h79v-99h-101z" />
    <glyph glyph-name="circumflex" unicode="&#x2c6;" horiz-adv-x="230" 
d="M299 556h-61l-33 92l-71 -92h-65l94 144h103z" />
    <glyph glyph-name="caron" unicode="&#x2c7;" horiz-adv-x="230" 
d="M237 556h-103l-33 144h61l33 -92l71 92h65z" />
    <glyph glyph-name="breve" unicode="&#x2d8;" horiz-adv-x="248" 
d="M332 620q-60 -62 -138 -62q-77 0 -111 62l59 40q7 -16 24.5 -26t38.5 -10q46 0 79 36z" />
    <glyph glyph-name="dotaccent" unicode="&#x2d9;" horiz-adv-x="157" 
d="M224 626q0 -28 -21 -48.5t-49 -20.5q-23 0 -39 15.5t-16 39.5q0 27 21 48t49 21q24 0 39.5 -16t15.5 -39z" />
    <glyph glyph-name="ring" unicode="&#x2da;" horiz-adv-x="177" 
d="M165 549q-35 0 -57 22.5t-22 57.5q0 40 29.5 69.5t69.5 29.5q35 0 57 -22.5t22 -57.5q0 -40 -29.5 -69.5t-69.5 -29.5zM171 598q17 0 30.5 13.5t13.5 31.5q0 15 -9.5 25.5t-24.5 10.5q-18 0 -31.5 -13.5t-13.5 -31.5q0 -15 10 -25.5t25 -10.5z" />
    <glyph glyph-name="ogonek" unicode="&#x2db;" horiz-adv-x="155" 
d="M30 -109l41 -29q-30 -48 -76 -48q-34 0 -54 16.5t-20 48.5q0 81 102 149l38 -28q-83 -52 -83 -115q0 -21 21 -21t31 27z" />
    <glyph glyph-name="tilde" unicode="&#x2dc;" horiz-adv-x="256" 
d="M247 554q-20 0 -32 11.5t-15 25.5t-10.5 25.5t-19.5 11.5q-26 0 -40 -68h-60q29 134 106 134q21 0 32.5 -11.5t15 -25.5t10.5 -25.5t19 -11.5q25 0 41 68h60q-30 -134 -107 -134z" />
    <glyph glyph-name="hungarumlaut" unicode="&#x2dd;" horiz-adv-x="267" 
d="M240 700l-112 -144h-61l86 144h87zM368 700l-112 -144h-61l86 144h87z" />
    <glyph glyph-name="pi" unicode="&#x3c0;" horiz-adv-x="428" 
d="M319 0h-114l89 400h-91l-89 -400h-113l88 400h-36l21 100h392l-21 -100h-38z" />
    <glyph glyph-name="endash" unicode="&#x2013;" horiz-adv-x="460" 
d="M419 194h-400l21 96h400z" />
    <glyph glyph-name="emdash" unicode="&#x2014;" horiz-adv-x="640" 
d="M599 194h-580l21 96h580z" />
    <glyph glyph-name="quoteleft" unicode="&#x2018;" horiz-adv-x="251" 
d="M100 488q0 53 40 107t99 83l41 -44q-30 -13 -57 -36t-37 -48q2 1 10 1q24 0 40 -16t16 -44q0 -32 -25 -55t-56 -23q-29 0 -50 20t-21 55z" />
    <glyph glyph-name="quoteright" unicode="&#x2019;" horiz-adv-x="251" 
d="M281 602q0 -54 -39.5 -107.5t-98.5 -82.5l-41 44q29 13 56 36t38 48q-2 -1 -10 -1q-24 0 -40 16t-16 43q0 32 24.5 55.5t55.5 23.5q30 0 50.5 -20t20.5 -55z" />
    <glyph glyph-name="quotesinglbase" unicode="&#x201a;" horiz-adv-x="251" 
d="M161 62q0 -54 -39.5 -107.5t-98.5 -82.5l-41 43q29 14 56 37t38 47h-10q-24 0 -40 16t-16 43q0 32 25 55.5t56 23.5q29 0 49.5 -20t20.5 -55z" />
    <glyph glyph-name="quotedblleft" unicode="&#x201c;" horiz-adv-x="442" 
d="M293 488q0 53 39.5 107t98.5 83l42 -44q-30 -13 -57 -36t-38 -48q3 1 10 1q24 0 40.5 -16t16.5 -44q0 -32 -25 -55t-56 -23q-29 0 -50 20t-21 55zM103 488q0 53 39.5 107t98.5 83l41 -44q-29 -13 -56 -36t-38 -48q2 1 10 1q24 0 40 -16t16 -44q0 -32 -25 -55t-56 -23
q-29 0 -49.5 20t-20.5 55z" />
    <glyph glyph-name="quotedblright" unicode="&#x201d;" horiz-adv-x="442" 
d="M281 602q0 -54 -39.5 -107.5t-98.5 -82.5l-41 44q29 13 56 36t38 48q-2 -1 -10 -1q-24 0 -40 16t-16 43q0 32 24.5 55.5t55.5 23.5q30 0 50.5 -20t20.5 -55zM472 602q0 -54 -39.5 -107.5t-98.5 -82.5l-42 44q30 13 57 36t37 48q-2 -1 -9 -1q-24 0 -40.5 16t-16.5 43
q0 32 25 55.5t56 23.5q29 0 50 -20t21 -55z" />
    <glyph glyph-name="quotedblbase" unicode="&#x201e;" horiz-adv-x="442" 
d="M161 62q0 -54 -39.5 -107.5t-98.5 -82.5l-41 43q29 14 56 37t38 47h-10q-24 0 -40 16t-16 43q0 32 25 55.5t56 23.5q29 0 49.5 -20t20.5 -55zM352 62q0 -54 -39.5 -107.5t-98.5 -82.5l-41 43q72 35 94 84h-10q-24 0 -40.5 16t-16.5 43q0 32 25 55.5t56 23.5q29 0 50 -20
t21 -55z" />
    <glyph glyph-name="dagger" unicode="&#x2020;" horiz-adv-x="273" 
d="M314 525l-88 4l-41 -202h-62l49 202l-90 -4l13 56l88 -3l18 99h62l-26 -99l90 3z" />
    <glyph glyph-name="daggerdbl" unicode="&#x2021;" horiz-adv-x="273" 
d="M327 581l-13 -56l-88 4l-44 -200l90 4l-13 -56l-88 3l-19 -100h-62l27 100l-90 -3l13 56l87 -4l45 200l-90 -4l13 56l88 -3l18 99h62l-26 -99z" />
    <glyph glyph-name="bullet" unicode="&#x2022;" horiz-adv-x="358" 
d="M296 254q0 -51 -39 -89t-91 -38q-44 0 -74 30t-30 74q0 51 39 89t91 38q44 0 74 -30t30 -74z" />
    <glyph glyph-name="ellipsis" unicode="&#x2026;" horiz-adv-x="745" 
d="M77 -11q-28 0 -47.5 19.5t-19.5 47.5q0 33 24 57t57 24q28 0 47.5 -20t19.5 -48q0 -33 -24 -56.5t-57 -23.5zM325 -11q-28 0 -47.5 19.5t-19.5 47.5q0 33 24 57t57 24q28 0 47.5 -20t19.5 -48q0 -33 -24 -56.5t-57 -23.5zM573 -11q-28 0 -47.5 19.5t-19.5 47.5
q0 33 24 57t57 24q28 0 47.5 -20t19.5 -48q0 -33 -24 -56.5t-57 -23.5z" />
    <glyph glyph-name="perthousand" unicode="&#x2030;" horiz-adv-x="867" 
d="M125 0h-50l426 667h51zM396 -12q-54 0 -84 35.5t-30 89.5q0 85 47 146t108 61q53 0 83 -35.5t30 -89.5q0 -85 -46.5 -146t-107.5 -61zM401 59q26 0 49.5 39t23.5 90q0 61 -42 61q-26 0 -49.5 -39t-23.5 -90q0 -61 42 -61zM188 345q-53 0 -83 35.5t-30 89.5q0 85 47 146
t108 61q53 0 83 -35.5t30 -89.5q0 -85 -47 -146t-108 -61zM193 416q27 0 50.5 39t23.5 90q0 61 -42 61q-27 0 -50.5 -39t-23.5 -90q0 -61 42 -61zM675 -12q-53 0 -83 35.5t-30 89.5q0 85 47 146t108 61q53 0 83 -35.5t30 -89.5q0 -85 -47 -146t-108 -61zM680 59
q27 0 50.5 39t23.5 90q0 61 -42 61q-27 0 -50.5 -39t-23.5 -90q0 -61 42 -61z" />
    <glyph glyph-name="guilsinglleft" unicode="&#x2039;" horiz-adv-x="238" 
d="M165 63h-86l-50 180l130 177h90l-133 -181z" />
    <glyph glyph-name="guilsinglright" unicode="&#x203a;" horiz-adv-x="238" 
d="M73 420h86l50 -180l-130 -177h-90l133 181z" />
    <glyph glyph-name="fraction" unicode="&#x2044;" horiz-adv-x="133" 
d="M324 667l-426 -667h-50l425 667h51z" />
    <glyph glyph-name="Euro" unicode="&#x20ac;" horiz-adv-x="445" 
d="M220 -12q-84 0 -128.5 55.5t-44.5 156.5q0 18 1 28h-37l16 72h28q9 48 14 69h-27l16 71h31q36 105 96 171.5t145 66.5q81 0 120 -55t42 -135l-116 -23q-7 101 -54 101q-56 0 -101 -126h103l-16 -71h-108l-14 -69h107l-16 -72h-100q-1 -12 -1 -31q0 -97 51 -97q43 0 83 82
l101 -43q-71 -151 -191 -151z" />
    <glyph glyph-name="trademark" unicode="&#x2122;" horiz-adv-x="374" 
d="M384 447h-28l40 182l-95 -182h-8l-15 182l-40 -182h-28l48 220h43l10 -157l78 157h43zM217 641h-42l-43 -194h-28l43 194h-42l5 26h112z" />
    <glyph glyph-name="Omega" unicode="&#x2126;" horiz-adv-x="469" 
d="M-17 0l24 111h88q-55 63 -55 165q0 60 18.5 128.5t50.5 130.5t83 102.5t109 40.5q82 0 132.5 -48.5t50.5 -150.5q0 -116 -49 -212.5t-124 -155.5h91l-24 -111h-169l13 61l11 50q48 38 83.5 159.5t35.5 196.5q0 51 -11.5 74.5t-40.5 23.5q-40 0 -75 -66.5t-52 -148
t-17 -145.5q0 -66 20 -94l-11 -50l-13 -61h-169z" />
    <glyph glyph-name="partialdiff" unicode="&#x2202;" horiz-adv-x="417" 
d="M177 -12q-81 0 -121.5 46t-40.5 126q0 65 22 134t69 120.5t105 51.5q37 0 61 -22t31 -57q-1 71 -12 152t-30 129l111 34q43 -128 43 -273q0 -56 -7.5 -114.5t-26 -117.5t-45 -105t-68 -75t-91.5 -29zM179 88q43 0 71.5 71.5t28.5 134.5q0 29 -12 50.5t-39 21.5
q-30 0 -53.5 -39.5t-34 -85t-10.5 -80.5q0 -73 49 -73z" />
    <glyph glyph-name="Delta" unicode="&#x2206;" horiz-adv-x="424" 
d="M369 0h-423l286 667h145zM253 111l23 415l-159 -415h136z" />
    <glyph glyph-name="product" unicode="&#x220f;" horiz-adv-x="516" 
d="M373 -90h-126l143 646h-127l-143 -646h-125l142 646h-50l24 111h480l-24 -111h-51z" />
    <glyph glyph-name="summation" unicode="&#x2211;" horiz-adv-x="362" 
d="M233 556l54 -264l-173 -271h169l-24 -111h-298l25 115l173 273l-55 258l24 111h298l-24 -111h-169z" />
    <glyph glyph-name="minus" unicode="&#x2212;" horiz-adv-x="383" 
d="M365 299h-324l15 71h325z" />
    <glyph glyph-name="radical" unicode="&#x221a;" horiz-adv-x="465" 
d="M234 0h-77v302l-97 -18l3 70l165 31l-7 -272l245 554h74z" />
    <glyph glyph-name="infinity" unicode="&#x221e;" horiz-adv-x="494" 
d="M134 162q-45 0 -68.5 32.5t-23.5 87.5q0 53 17.5 104t52.5 87t79 36q37 0 61.5 -29t30.5 -74q50 103 116 103q45 0 68.5 -33t23.5 -88q0 -83 -41.5 -154.5t-106.5 -71.5q-38 0 -62.5 29t-30.5 73q-50 -102 -116 -102zM341 233q34 0 57 46t23 95q0 30 -11 47t-29 17
q-37 0 -84 -106q5 -99 44 -99zM153 233q38 0 84 106q-3 99 -43 99q-34 0 -57.5 -46t-23.5 -95q0 -30 11 -47t29 -17z" />
    <glyph glyph-name="integral" unicode="&#x222b;" horiz-adv-x="244" 
d="M-32 -100h-27l16 76h28q37 0 45 42l140 632q26 118 145 118h28l-17 -76h-28q-37 0 -45 -42l-140 -632q-26 -118 -145 -118z" />
    <glyph glyph-name="approxequal" unicode="&#x2248;" horiz-adv-x="383" 
d="M20 203l17 75q31 -19 76 -19q34 0 81.5 17t88.5 17q47 0 78 -15l-16 -75q-32 19 -78 19q-33 0 -81 -17.5t-89 -17.5q-45 0 -77 16zM61 390l16 75q34 -20 78 -20q33 0 81 17.5t89 17.5q47 0 77 -15l-16 -75q-32 19 -77 19q-34 0 -81.5 -17.5t-88.5 -17.5q-44 0 -78 16z
" />
    <glyph glyph-name="notequal" unicode="&#x2260;" horiz-adv-x="383" 
d="M83 93h-53l70 110h-80l16 72h110l76 118h-161l16 72h191l70 109h54l-70 -109h80l-16 -72h-110l-76 -118h160l-15 -72h-192z" />
    <glyph glyph-name="lessequal" unicode="&#x2264;" horiz-adv-x="383" 
d="M334 156l-295 138l19 81l355 139l-19 -89l-262 -95l220 -93zM306 27h-325l15 71h325z" />
    <glyph glyph-name="greaterequal" unicode="&#x2265;" horiz-adv-x="383" 
d="M364 294l-355 -138l20 88l262 94l-220 95l17 81l294 -139zM306 27h-325l15 71h325z" />
    <glyph glyph-name="lozenge" unicode="&#x25ca;" horiz-adv-x="375" 
d="M144 0h-21l-84 334l231 333h21l85 -333zM142 45l197 293l-67 284l-196 -292z" />
    <glyph glyph-name="apple" unicode="&#xf8ff;" horiz-adv-x="667" 
d="M200 153l16 69h-76q-31 0 -54 -23t-23 -54q0 -26 16.5 -43t41.5 -17q64 0 79 68zM265 445l13 59q2 12 2 19q0 27 -17 43t-44 16q-32 0 -54.5 -21.5t-22.5 -53.5q0 -28 18 -45t48 -17h57zM269 265h137l31 137h-137zM563 160q0 28 -18 45t-47 17h-57l-13 -59q-2 -10 -2 -19
q0 -27 16.5 -43t43.5 -16q32 0 54.5 21.5t22.5 53.5zM643 522q0 26 -17 43t-42 17q-31 0 -51.5 -18t-27.5 -50l-15 -69h76q31 0 54 23.5t23 53.5zM606 160q0 -48 -38.5 -83t-88.5 -35q-42 0 -70 28t-28 70q0 14 3 29l13 53h-137l-18 -77q-11 -46 -45 -74.5t-80 -28.5
q-41 0 -70 28t-29 69q0 50 38 88t87 38h82l31 137h-57q-45 0 -72.5 29.5t-27.5 75.5q0 48 38.5 83t88.5 35q42 0 70 -28t28 -70q0 -14 -3 -29l-12 -53h137l17 77q11 46 45 74.5t80 28.5q42 0 71 -28t29 -69q0 -50 -38 -88t-87 -38h-82l-31 -137h54q45 0 73.5 -29.5
t28.5 -75.5z" />
    </font>
</defs>
</svg>
